<svg width="2227" height="928" viewBox="0 0 2227 928" fill="none" xmlns="http://www.w3.org/2000/svg">
<g clip-path="url(#clip0_1_1696)">
<path d="M2229.8 403.251C2242.31 394.286 2257.43 391.838 2270.91 395.281C2272.3 395.635 2273.74 395.896 2275.21 395.836C2283.08 395.514 2290.84 392.875 2297.46 388.196L2300.28 386.17C2308.91 379.903 2314.85 370.597 2316.7 360.296C2316.74 360.084 2316.76 359.87 2316.78 359.676C2316.79 359.478 2316.81 359.299 2316.84 359.126C2321.86 333.289 2346.95 315.481 2373.02 319.413L2373.02 319.414C2383.5 321.102 2394.48 318.557 2403.38 312.272L2406.51 310.029C2413.82 304.787 2419.13 297.339 2421.74 288.953C2422.02 288.08 2422.17 287.182 2422.27 286.297C2423.88 273.132 2430.95 260.484 2442.84 251.962C2464.8 236.215 2494.82 240.577 2509.9 261.624L2510.05 261.839C2516.09 270.308 2519.23 280.878 2518.31 292.111C2517.09 306.931 2509.14 319.9 2497.66 328.126L2496.87 328.691C2485.18 336.814 2471.3 339.333 2458.61 336.74C2457.87 336.59 2457.11 336.465 2456.34 336.428C2447.33 335.997 2438.29 338.662 2430.82 344.104L2427.75 346.306C2418.99 352.765 2412.98 362.304 2411.15 372.82L2411.03 373.465C2406.05 399.361 2380.92 417.111 2354.85 413.177C2344.37 411.49 2333.39 414.034 2324.5 420.318L2321.3 422.609C2312.74 428.956 2306.94 438.228 2305.31 448.515C2303.32 459.961 2297.16 470.532 2287.99 478.1L2287.99 478.1C2272.23 491.186 2258.68 487.215 2240.39 487.686C2232.36 487.892 2224.45 490.537 2217.78 495.394L2214.71 497.595C2205.95 504.054 2199.94 513.593 2198.11 524.109L2197.99 524.757C2193.05 550.449 2168.27 568.123 2142.42 564.555L2141.81 564.467C2131.33 562.779 2120.35 565.324 2111.46 571.608L2108.26 573.899C2099.7 580.246 2093.9 589.518 2092.27 599.804C2090.28 611.251 2084.12 621.822 2074.95 629.39L2074.95 629.391C2054.32 646.512 2024.16 644.373 2007.62 624.733C2007.61 624.654 2007.58 624.575 2007.53 624.509C1998.73 614.029 1995.24 600.092 1997.94 586.42L1997.94 586.417C2002.81 560.748 2027.6 542.973 2053.45 546.539L2054.06 546.628C2064.59 548.374 2075.53 545.769 2084.42 539.486L2087.25 537.46C2095.87 531.192 2101.81 521.886 2103.66 511.586C2103.7 511.374 2103.72 511.159 2103.74 510.966C2103.76 510.767 2103.77 510.589 2103.8 510.417C2108.82 484.578 2133.91 466.769 2159.98 470.703C2170.46 472.391 2181.44 469.846 2190.34 463.562L2193.47 461.319C2200.78 456.077 2206.09 448.628 2208.7 440.241C2213.38 425.233 2216.14 413.042 2229.8 403.251Z" stroke="url(#paint0_linear_1_1696)" stroke-width="0.721946"/>
<path d="M2226.99 399.375C2240.82 389.461 2257.56 386.788 2272.45 390.655C2273.84 391.016 2275.28 391.272 2276.75 391.22C2285.47 390.905 2294.08 388 2301.42 382.815L2304.52 380.586C2314 373.697 2320.53 363.469 2322.57 352.148C2322.61 351.916 2322.63 351.683 2322.65 351.469C2322.67 351.251 2322.69 351.052 2322.72 350.861C2328.25 322.419 2355.87 302.819 2384.56 307.148L2384.56 307.148C2396.08 309.003 2408.15 306.206 2417.93 299.299L2421.37 296.831C2429.44 291.043 2435.3 282.808 2438.16 273.538C2438.43 272.665 2438.58 271.768 2438.68 270.881C2440.42 256.343 2448.21 242.366 2461.33 232.957C2485.51 215.626 2518.55 220.426 2535.15 243.595L2535.32 243.83C2541.96 253.154 2545.43 264.788 2544.41 277.154C2543.07 293.467 2534.31 307.742 2521.68 316.796L2520.81 317.418C2507.91 326.383 2492.59 329.147 2478.58 326.256C2477.85 326.104 2477.09 325.98 2476.32 325.941C2466.38 325.439 2456.4 328.368 2448.15 334.373L2444.78 336.794C2435.15 343.893 2428.55 354.378 2426.53 365.937L2426.4 366.647C2420.92 395.15 2393.26 414.688 2364.57 410.36L2364.57 410.359C2353.04 408.503 2340.97 411.301 2331.2 418.209L2327.68 420.728C2318.27 427.704 2311.9 437.896 2310.11 449.201C2307.92 461.8 2301.13 473.436 2291.04 481.767L2291.04 481.767C2273.77 496.107 2258.93 491.889 2238.87 492.313C2229.97 492.501 2221.2 495.412 2213.81 500.791L2210.43 503.211C2200.8 510.311 2194.2 520.796 2192.19 532.355L2192.06 533.067C2186.57 561.569 2158.92 581.107 2130.22 576.778L2130.22 576.777C2118.7 574.921 2106.63 577.718 2096.85 584.626L2093.34 587.145C2083.93 594.122 2077.56 604.314 2075.76 615.619C2073.57 628.219 2066.79 639.855 2056.7 648.185L2056.7 648.186C2034 667.034 2000.78 664.677 1982.58 643.047C1982.57 642.964 1982.54 642.88 1982.49 642.811C1972.8 631.275 1968.96 615.933 1971.93 600.883L1971.93 600.88C1977.29 572.625 2004.58 553.06 2033.03 556.986L2033.71 557.083C2045.28 559.002 2057.3 556.139 2067.07 549.233L2070.18 547.005C2079.66 540.116 2086.19 529.887 2088.23 518.566C2088.27 518.335 2088.29 518.101 2088.31 517.887C2088.33 517.669 2088.35 517.47 2088.38 517.279C2093.86 489.06 2121.09 469.543 2149.54 473.469L2150.22 473.566C2161.74 475.421 2173.81 472.624 2183.58 465.717L2187.02 463.249C2195.1 457.461 2200.95 449.226 2203.81 439.956C2208.9 423.473 2212.01 410.113 2226.99 399.375Z" stroke="url(#paint1_linear_1_1696)" stroke-width="0.721946"/>
<path d="M2223.9 395.111C2239.19 384.154 2257.7 381.233 2274.14 385.567C2275.53 385.933 2276.97 386.186 2278.43 386.14C2288.1 385.835 2297.65 382.637 2305.77 376.895L2309.19 374.443C2319.61 366.871 2326.79 355.628 2329.03 343.184C2329.07 342.931 2329.09 342.676 2329.11 342.441C2329.14 342.201 2329.16 341.981 2329.2 341.768C2335.23 310.708 2365.2 289.226 2396.52 293.547L2397.26 293.655C2409.92 295.694 2423.19 292.619 2433.93 285.027L2437.72 282.313C2446.63 275.924 2453.08 266.822 2456.21 256.581C2456.48 255.708 2456.63 254.812 2456.73 253.924C2458.61 237.875 2467.19 222.435 2481.68 212.051C2508.29 192.975 2544.66 198.258 2562.93 223.76L2563.11 224.02C2570.42 234.282 2574.24 247.088 2573.12 260.699C2571.64 278.655 2562.01 294.367 2548.11 304.333L2547.15 305.017C2532.92 314.907 2516 317.94 2500.56 314.722C2499.82 314.568 2499.06 314.445 2498.3 314.404C2487.33 313.825 2476.32 317.043 2467.22 323.667L2463.51 326.327L2463.51 326.33C2452.92 334.135 2445.67 345.66 2443.45 358.365L2443.31 359.146C2437.28 390.519 2406.83 412.024 2375.25 407.259L2375.25 407.259C2362.59 405.219 2349.32 408.293 2338.57 415.886L2338.57 415.885L2334.71 418.653L2334.71 418.657C2324.52 426.207 2317.58 437.183 2315.48 449.379L2315.39 449.955C2312.97 463.823 2305.51 476.63 2294.4 485.799L2294.4 485.8C2275.47 501.516 2259.2 497.033 2237.19 497.405C2227.34 497.571 2217.62 500.774 2209.45 506.727L2205.73 509.39C2195.14 517.194 2187.89 528.72 2185.68 541.425L2185.53 542.206C2179.55 573.335 2149.53 594.748 2118.21 590.425L2117.47 590.318C2104.81 588.279 2091.54 591.354 2080.79 598.946L2076.93 601.717C2066.58 609.386 2059.58 620.589 2057.61 633.015C2055.2 646.883 2047.73 659.69 2036.63 668.859L2036.62 668.859C2011.63 689.607 1975.07 687.012 1955.03 663.193C1955.03 663.105 1955 663.016 1954.94 662.944C1944.28 650.245 1940.05 633.358 1943.32 616.792L1943.32 616.789C1949.22 585.689 1979.26 564.156 2010.58 568.476L2011.32 568.583C2024.03 570.693 2037.25 567.546 2047.99 559.955L2051.41 557.504C2061.83 549.931 2069.01 538.688 2071.25 526.244C2071.29 525.992 2071.32 525.736 2071.34 525.501C2071.36 525.261 2071.38 525.041 2071.42 524.828C2077.5 493.524 2107.89 471.949 2139.48 476.714C2152.14 478.754 2165.41 475.68 2176.15 468.087L2179.94 465.373C2188.85 458.984 2195.3 449.882 2198.43 439.641C2203.96 421.536 2207.47 406.89 2223.9 395.111Z" stroke="url(#paint2_linear_1_1696)" stroke-width="0.721946"/>
<path d="M2220.5 390.422C2237.39 378.317 2257.85 375.122 2276.01 379.971C2277.39 380.342 2278.84 380.594 2280.3 380.553C2291 380.259 2301.57 376.738 2310.56 370.384L2314.32 367.687C2325.77 359.363 2333.66 347.003 2336.13 333.324C2336.18 333.048 2336.2 332.769 2336.22 332.51C2336.25 332.247 2336.27 332.003 2336.31 331.766C2343.01 297.313 2376.46 273.568 2411.22 278.813C2425.14 281.055 2439.73 277.675 2451.54 269.329L2455.7 266.343C2465.54 259.294 2472.65 249.239 2476.07 237.929C2476.33 237.056 2476.49 236.161 2476.59 235.271C2478.62 217.56 2488.08 200.512 2504.06 189.056C2533.35 168.062 2573.38 173.874 2593.48 201.944L2593.69 202.229C2601.73 213.525 2605.93 227.62 2604.7 242.601C2603.07 262.363 2592.47 279.656 2577.17 290.624L2576.12 291.377C2560.42 302.285 2541.76 305.615 2524.73 302.036C2523.99 301.881 2523.24 301.758 2522.47 301.715C2510.38 301.051 2498.23 304.589 2488.2 311.892L2484.12 314.818L2484.12 314.817L2484.12 314.821C2472.48 323.4 2464.51 336.07 2462.07 350.036L2461.91 350.896C2455.27 385.426 2421.76 409.094 2387 403.849C2373.08 401.607 2358.49 404.987 2346.69 413.333L2342.44 416.377L2342.44 416.376L2342.43 416.38C2331.06 424.811 2323.36 437.126 2321.2 450.785C2318.54 466.048 2310.32 480.143 2298.1 490.235L2298.1 490.235C2277.34 507.469 2259.5 502.691 2235.34 503.007C2224.45 503.15 2213.69 506.673 2204.65 513.258L2200.56 516.187C2188.92 524.766 2180.95 537.436 2178.51 551.402L2178.35 552.262C2171.71 586.792 2138.21 610.46 2103.45 605.214C2089.52 602.973 2074.94 606.353 2063.13 614.699L2058.88 617.746C2047.5 626.177 2039.81 638.492 2037.64 652.15C2034.98 667.414 2026.77 681.51 2014.54 691.601L2014.54 691.601C1987.04 714.439 1946.79 711.579 1924.73 685.354C1924.73 685.261 1924.71 685.167 1924.64 685.09C1912.9 671.113 1908.25 652.526 1911.85 634.292L1911.86 634.29C1918.34 600.061 1951.41 576.361 1985.87 581.117L1986.69 581.234C2000.67 583.554 2015.2 580.095 2027 571.749L2030.77 569.053C2042.22 560.729 2050.11 548.369 2052.57 534.69C2052.62 534.414 2052.65 534.135 2052.67 533.876C2052.69 533.613 2052.71 533.368 2052.76 533.132C2059.45 498.678 2092.91 474.934 2127.66 480.179C2141.59 482.42 2156.17 479.041 2167.98 470.695L2172.15 467.709C2181.98 460.66 2189.09 450.605 2192.51 439.295C2198.54 419.407 2202.48 403.344 2220.5 390.422Z" stroke="url(#paint3_linear_1_1696)" stroke-width="0.721946"/>
<path d="M2216.77 385.262C2235.41 371.894 2258.03 368.4 2278.06 373.816C2279.44 374.192 2280.88 374.441 2282.35 374.406C2294.18 374.123 2305.88 370.248 2315.83 363.22L2319.96 360.254C2332.55 351.102 2341.23 337.515 2343.94 322.478C2343.99 322.176 2344.02 321.871 2344.04 321.586C2344.07 321.296 2344.09 321.025 2344.14 320.763C2351.51 282.845 2388.33 256.714 2426.58 262.486C2441.88 264.951 2457.92 261.235 2470.9 252.059L2475.48 248.775C2486.33 240.999 2494.16 229.897 2497.91 217.411C2498.18 216.538 2498.33 215.643 2498.43 214.753C2500.64 195.214 2511.05 176.395 2528.68 163.759C2560.91 140.654 2604.96 147.05 2627.09 177.944L2627.32 178.259C2636.18 190.691 2640.8 206.204 2639.44 222.692C2637.65 244.442 2625.98 263.473 2609.14 275.544L2607.99 276.372C2590.68 288.4 2570.09 292.056 2551.32 288.079C2550.58 287.922 2549.83 287.801 2549.06 287.757C2535.73 286.998 2522.33 290.887 2511.27 298.938L2506.78 302.157L2506.78 302.156L2506.78 302.16C2493.99 311.592 2485.22 325.521 2482.54 340.875L2482.37 341.822C2475.06 379.823 2438.18 405.869 2399.93 400.096C2384.62 397.632 2368.59 401.348 2355.61 410.523L2350.94 413.871L2350.94 413.871L2350.93 413.875C2338.43 423.143 2329.97 436.682 2327.58 451.697C2324.66 468.496 2315.62 484.008 2302.17 495.114L2302.17 495.115C2279.4 514.016 2259.83 508.913 2233.31 509.169C2221.27 509.285 2209.36 513.161 2199.36 520.44L2194.87 523.662C2182.07 533.094 2173.31 547.023 2170.63 562.377L2170.46 563.324C2163.21 601.029 2126.85 626.964 2088.91 621.728L2088.02 621.599C2072.71 619.134 2056.68 622.85 2043.7 632.025L2039.02 635.377C2026.51 644.645 2018.05 658.184 2015.67 673.199C2012.75 689.998 2003.71 705.51 1990.25 716.616L1990.25 716.617C1959.98 741.753 1915.68 738.603 1891.4 709.73C1891.41 709.631 1891.38 709.531 1891.31 709.449C1878.39 694.066 1873.27 673.609 1877.24 653.542L1877.24 653.539C1884.38 615.869 1920.76 589.785 1958.7 595.019L1959.59 595.149C1974.96 597.699 1990.94 593.897 2003.92 584.723L2008.05 581.757C2020.64 572.605 2029.32 559.018 2032.03 543.98C2032.08 543.679 2032.11 543.374 2032.13 543.089C2032.16 542.799 2032.18 542.528 2032.23 542.266C2039.6 504.348 2076.41 478.216 2114.67 483.988C2129.97 486.453 2146.01 482.738 2158.99 473.562L2163.57 470.278C2174.42 462.502 2182.25 451.399 2186 438.913C2192.56 417.065 2196.98 399.443 2216.77 385.262Z" stroke="url(#paint4_linear_1_1696)" stroke-width="0.721946"/>
<path d="M2212.66 379.587C2233.24 364.831 2258.22 361.008 2280.31 367.048C2281.7 367.427 2283.14 367.674 2284.6 367.644C2297.69 367.376 2310.63 363.11 2321.62 355.341L2326.18 352.079C2340.02 342.017 2349.55 327.08 2352.53 310.548C2352.59 310.218 2352.62 309.883 2352.65 309.569C2352.67 309.25 2352.7 308.952 2352.76 308.662C2360.8 267.259 2400.75 238.625 2442.49 244.386L2443.48 244.528C2460.3 247.237 2477.93 243.152 2492.21 233.064L2497.25 229.452C2509.21 220.876 2517.84 208.621 2521.94 194.842C2522.2 193.97 2522.36 193.075 2522.46 192.184C2524.85 170.634 2536.32 149.868 2555.76 135.934C2591.23 110.508 2639.71 117.545 2664.07 151.546L2664.31 151.892C2674.06 165.574 2679.15 182.646 2677.66 200.792C2675.69 224.728 2662.84 245.672 2644.31 258.955L2643.04 259.867C2623.96 273.127 2601.26 277.141 2580.57 272.727C2579.83 272.57 2579.08 272.449 2578.31 272.404C2563.62 271.541 2548.84 275.815 2536.66 284.691L2531.71 288.232C2517.87 298.441 2508.31 313.442 2505.21 330.01L2505.07 330.801L2504.87 331.839C2496.83 373.66 2456.25 402.323 2414.15 395.97C2397.33 393.261 2379.7 397.345 2365.42 407.432L2360.28 411.119C2346.53 421.309 2337.23 436.194 2334.61 452.701C2331.4 471.189 2321.45 488.26 2306.64 500.482L2306.64 500.482C2281.67 521.217 2260.19 515.761 2231.08 515.949C2217.77 516.035 2204.6 520.299 2193.56 528.342L2188.61 531.885C2174.55 542.255 2164.91 557.57 2161.97 574.449L2161.77 575.49C2153.73 617.311 2113.15 645.975 2071.05 639.624L2071.05 639.623C2054.23 636.913 2036.6 640.997 2022.32 651.086L2017.18 654.772C2003.43 664.962 1994.13 679.847 1991.51 696.354C1988.29 714.841 1978.34 731.912 1963.54 744.134L1963.54 744.134C1930.22 771.799 1881.45 768.332 1854.74 736.545C1854.75 736.441 1854.72 736.333 1854.65 736.246C1840.43 719.316 1834.79 696.802 1839.16 674.718L1839.16 674.714C1847.08 632.932 1887.7 604.104 1929.8 610.457C1946.69 613.261 1964.25 609.081 1978.52 598.994L1983.07 595.732C1996.91 585.67 2006.45 570.732 2009.43 554.201C2009.49 553.871 2009.52 553.536 2009.54 553.222C2009.57 552.904 2009.6 552.604 2009.65 552.314C2017.76 510.587 2058.28 481.829 2100.37 488.18L2100.37 488.181C2117.2 490.891 2134.83 486.806 2149.11 476.718L2154.14 473.105C2166.11 464.529 2174.73 452.274 2178.84 438.495C2186 414.49 2190.94 395.152 2212.66 379.587Z" stroke="url(#paint5_linear_1_1696)" stroke-width="0.721946"/>
<path d="M2208.13 373.345C2230.85 357.061 2258.42 352.876 2282.79 359.602C2284.18 359.985 2285.62 360.23 2287.08 360.204C2301.54 359.952 2315.85 355.259 2328 346.674L2333.01 343.087C2348.22 332.024 2358.71 315.6 2361.98 297.425C2362.05 297.064 2362.08 296.698 2362.11 296.352C2362.14 296.001 2362.17 295.67 2362.23 295.349C2371.15 249.43 2415.73 217.783 2462.06 224.772L2462.06 224.773C2480.56 227.753 2499.95 223.263 2515.64 212.171L2521.18 208.197C2534.37 198.742 2543.88 185.218 2548.38 170.017C2548.63 169.145 2548.79 168.251 2548.89 167.359C2551.49 143.597 2564.12 120.689 2585.55 105.327C2624.58 77.3477 2677.94 85.0899 2704.73 122.508L2705.01 122.889C2715.74 137.945 2721.33 156.734 2719.69 176.703C2717.52 203.044 2703.39 226.091 2683 240.709L2681.6 241.712C2660.57 256.326 2635.54 260.735 2612.75 255.841C2612.01 255.682 2611.25 255.562 2610.49 255.515C2594.29 254.538 2578.01 259.237 2564.58 269.018L2559.14 272.913C2543.68 284.315 2533.08 301.153 2529.85 319.712L2529.63 320.856C2520.78 366.879 2476.12 398.423 2429.79 391.432C2411.3 388.453 2391.91 392.943 2376.22 404.035L2370.56 408.088C2355.45 419.292 2345.22 435.658 2342.34 453.807C2338.8 474.151 2327.85 492.937 2311.56 506.386L2311.56 506.387C2284.16 529.138 2260.58 523.293 2228.62 523.407C2213.92 523.46 2199.37 528.151 2187.17 537.034L2181.73 540.932C2166.26 552.333 2155.67 569.172 2152.43 587.73L2152.22 588.876C2143.37 634.898 2098.71 666.441 2052.38 659.45C2033.88 656.471 2014.5 660.961 1998.81 672.053L1993.15 676.107C1978.27 687.137 1968.13 703.169 1965.07 720.98L1964.93 721.829C1961.39 742.172 1950.44 760.956 1934.15 774.404L1934.15 774.404C1897.48 804.85 1843.81 801.032 1814.41 766.041C1814.43 765.93 1814.4 765.815 1814.32 765.722C1798.67 747.091 1792.47 722.314 1797.27 698.011L1797.27 698.008C1805.92 652.388 1849.99 620.801 1895.93 627.139L1897.01 627.295C1915.59 630.378 1934.9 625.782 1950.59 614.692L1955.59 611.104C1970.81 600.041 1981.3 583.618 1984.57 565.443C1984.63 565.082 1984.67 564.716 1984.7 564.37C1984.73 564.02 1984.76 563.689 1984.82 563.367C1993.74 517.447 2038.32 485.8 2084.65 492.792C2103.15 495.77 2122.53 491.28 2138.23 480.188L2143.77 476.215C2156.96 466.759 2166.46 453.236 2170.96 438.035C2178.77 411.66 2184.3 390.432 2208.13 373.345Z" stroke="url(#paint6_linear_1_1696)" stroke-width="0.721946"/>
<path d="M2203.16 366.478C2228.22 348.513 2258.66 343.93 2285.52 351.413C2286.9 351.799 2288.34 352.043 2289.8 352.021C2305.78 351.786 2321.6 346.622 2335.01 337.141L2340.52 333.194C2357.25 321.031 2368.78 302.972 2372.38 282.989C2372.45 282.594 2372.48 282.193 2372.52 281.812C2372.55 281.427 2372.58 281.061 2372.65 280.706C2382.39 230.569 2430.77 195.895 2481.32 202.87L2482.51 203.043C2502.85 206.318 2524.16 201.381 2541.42 189.186L2547.51 184.816C2562.05 174.393 2572.52 159.475 2577.45 142.709C2577.71 141.836 2577.86 140.943 2577.96 140.05C2580.79 113.855 2594.69 88.5911 2618.31 71.6581C2661.26 40.8703 2719.98 49.3889 2749.47 90.5666L2749.77 90.985C2761.58 107.554 2767.74 128.23 2765.93 150.204C2763.54 179.191 2747.99 204.553 2725.55 220.638L2724.01 221.741C2700.83 237.846 2673.25 242.688 2648.14 237.265C2647.4 237.105 2646.64 236.985 2645.88 236.938C2628.04 235.835 2610.09 241.001 2595.29 251.777L2589.31 256.062C2572.3 268.599 2560.66 287.113 2557.1 307.518L2556.86 308.777C2547.13 359.42 2497.99 394.131 2447 386.439L2447.01 386.439C2426.67 383.162 2405.35 388.1 2388.1 400.296L2381.88 404.755C2365.25 417.074 2354.01 435.068 2350.85 455.021C2346.95 477.409 2334.9 498.081 2316.97 512.88L2316.97 512.881C2286.9 537.85 2261.01 531.577 2225.92 531.611C2209.68 531.628 2193.6 536.788 2180.13 546.596L2174.16 550.882C2157.15 563.419 2145.5 581.933 2141.94 602.338L2141.71 603.597C2131.97 654.241 2082.83 688.952 2031.85 681.258C2011.51 677.983 1990.2 682.92 1972.94 695.115L1966.72 699.574C1950.36 711.702 1939.21 729.33 1935.85 748.912L1935.69 749.846C1931.8 772.232 1919.75 792.902 1901.82 807.701L1901.82 807.701C1861.46 841.207 1802.4 837.002 1770.05 798.484C1770.07 798.367 1770.04 798.244 1769.96 798.145C1752.74 777.642 1745.91 750.377 1751.2 723.633L1751.2 723.63C1760.79 673.033 1809.97 638.124 1860.95 645.817L1860.95 645.817C1881.37 649.206 1902.6 644.154 1919.86 631.96L1925.36 628.013C1942.1 615.85 1953.63 597.792 1957.22 577.809C1957.3 577.414 1957.33 577.013 1957.36 576.632C1957.4 576.246 1957.43 575.88 1957.5 575.525C1967.31 524.995 2016.37 490.171 2067.35 497.862L2067.35 497.863C2087.69 501.139 2109.01 496.201 2126.26 484.005L2132.36 479.635C2146.9 469.212 2157.36 454.294 2162.3 437.528C2170.82 408.546 2176.99 385.238 2203.16 366.478Z" stroke="url(#paint7_linear_1_1696)" stroke-width="0.721946"/>
<path d="M2197.69 358.924C2225.33 339.111 2258.91 334.09 2288.52 342.404C2289.9 342.794 2291.34 343.035 2292.8 343.017C2310.44 342.802 2327.92 337.12 2342.73 326.653L2348.78 322.311C2367.18 308.937 2379.86 289.082 2383.81 267.11C2383.89 266.677 2383.93 266.237 2383.97 265.818C2384 265.394 2384.04 264.99 2384.11 264.597C2394.83 209.427 2448.06 171.273 2503.69 178.95L2505 179.139C2527.37 182.741 2550.8 177.312 2569.77 163.902L2576.48 159.095C2592.5 147.608 2604.02 131.156 2609.43 112.67C2609.69 111.797 2609.84 110.904 2609.94 110.01C2613.03 81.1387 2628.33 53.2828 2654.36 34.6222C2701.62 0.744973 2766.23 10.1171 2798.68 55.4299L2799.01 55.8904C2812 74.1234 2818.78 96.875 2816.8 121.055C2814.17 152.952 2797.05 180.858 2772.36 198.558L2770.67 199.772C2745.13 217.517 2714.73 222.836 2687.07 216.831C2686.33 216.67 2685.58 216.551 2684.81 216.502C2665.16 215.261 2645.37 220.94 2629.07 232.811L2622.5 237.524C2603.8 251.31 2590.99 271.667 2587.08 294.104L2586.82 295.489C2576.1 351.216 2522.03 389.411 2465.93 380.946L2465.93 380.946C2443.57 377.344 2420.13 382.772 2401.16 396.182L2394.32 401.086C2376.04 414.632 2363.68 434.418 2360.2 456.357C2355.91 480.992 2342.66 503.74 2322.93 520.025L2322.93 520.025C2289.92 547.432 2261.49 540.69 2222.95 540.637C2205.03 540.612 2187.27 546.287 2172.4 557.113L2165.83 561.827C2147.13 575.612 2134.32 595.969 2130.41 618.405L2130.15 619.791C2119.44 675.518 2065.36 713.712 2009.26 705.248L2009.27 705.247C1986.9 701.645 1963.47 707.074 1944.49 720.484L1937.65 725.388C1919.37 738.934 1907.01 758.719 1903.53 780.659C1899.25 805.294 1885.99 828.041 1866.26 844.325L1866.26 844.327C1821.85 881.199 1756.84 876.568 1721.25 834.17C1721.27 834.047 1721.25 833.915 1721.16 833.811C1702.21 811.249 1694.7 781.245 1700.52 751.816L1700.52 751.813C1710.99 696.573 1764.35 658.326 1819.97 666.001L1821.29 666.191C1843.74 669.918 1867.09 664.362 1886.06 650.954L1892.11 646.613C1910.51 633.238 1923.19 613.383 1927.15 591.411C1927.22 590.978 1927.26 590.539 1927.3 590.12C1927.34 589.696 1927.37 589.292 1927.44 588.899C1938.25 533.295 1992.23 494.975 2048.33 503.441C2070.7 507.042 2094.13 501.614 2113.1 488.204L2119.81 483.397C2135.83 471.91 2147.35 455.458 2152.76 436.971C2162.08 405.122 2168.95 379.525 2197.69 358.924ZM1721.13 834.401C1721.11 834.417 1721.1 834.432 1721.08 834.445C1721.1 834.432 1721.11 834.416 1721.13 834.401Z" stroke="url(#paint8_linear_1_1696)" stroke-width="0.721946"/>
<path d="M2191.67 350.615C2222.15 328.768 2259.19 323.266 2291.82 332.496C2293.2 332.888 2294.64 333.128 2296.1 333.113C2315.57 332.92 2334.87 326.669 2351.21 315.117L2357.87 310.342C2378.1 295.635 2392.04 273.802 2396.39 249.642C2396.48 249.168 2396.52 248.686 2396.56 248.224C2396.6 247.758 2396.64 247.312 2396.72 246.878C2408.52 186.173 2467.09 144.191 2528.29 152.637L2529.74 152.846C2554.33 156.806 2580.1 150.837 2600.96 136.092L2608.34 130.804C2626 118.147 2638.68 100.006 2644.61 79.6267C2644.86 78.7544 2645.02 77.8611 2645.12 76.9668C2648.48 45.1511 2665.32 14.4442 2694.01 -6.11685C2746.01 -43.3928 2817.1 -33.0818 2852.81 16.7798L2853.17 17.2856C2867.47 37.3487 2874.93 62.3844 2872.74 88.9915C2869.85 124.089 2851.02 154.797 2823.85 174.272L2821.99 175.608C2793.86 195.156 2760.36 200.998 2729.89 194.353C2729.15 194.191 2728.4 194.073 2727.64 194.024C2705.99 192.631 2684.19 198.873 2666.23 211.949L2659 217.134C2638.44 232.293 2624.36 254.678 2620.05 279.349L2619.77 280.873C2607.98 342.193 2548.48 384.219 2486.75 374.904C2462.16 370.944 2436.39 376.913 2415.53 391.658L2408.01 397.052C2387.91 411.947 2374.31 433.704 2370.49 457.827C2365.77 484.935 2351.18 509.964 2329.48 527.882L2329.48 527.883C2293.23 557.972 2262 550.714 2219.67 550.564C2199.9 550.494 2180.3 556.737 2163.9 568.681L2156.66 573.866C2136.1 589.025 2122.02 611.41 2117.72 636.081L2117.43 637.605C2105.64 698.924 2046.14 740.951 1984.42 731.635C1959.83 727.675 1934.06 733.645 1913.19 748.39L1905.67 753.784C1885.57 768.679 1871.98 790.435 1868.15 814.558C1863.44 841.666 1848.85 866.695 1827.14 884.614L1827.14 884.615C1778.27 925.189 1706.73 920.091 1667.57 873.425C1667.6 873.295 1667.57 873.154 1667.48 873.044C1646.63 848.216 1638.37 815.201 1644.77 782.819L1644.77 782.816C1656.29 722.032 1715 679.949 1776.21 688.394L1777.66 688.602C1802.35 692.7 1828.01 686.592 1848.88 671.848L1855.54 667.074C1875.77 652.367 1889.71 630.533 1894.06 606.373C1894.14 605.899 1894.18 605.417 1894.22 604.956C1894.26 604.49 1894.31 604.044 1894.39 603.61C1906.18 542.904 1964.75 500.923 2025.96 509.369L2027.4 509.578C2051.99 513.538 2077.76 507.567 2098.63 492.822L2098.63 492.823L2106 487.535C2123.66 474.878 2136.34 456.738 2142.27 436.358C2152.46 401.356 2160.11 373.239 2191.67 350.615Z" stroke="url(#paint9_linear_1_1696)" stroke-width="0.721946"/>
<path d="M2185.05 341.476C2218.65 317.393 2259.49 311.361 2295.44 321.597C2296.83 321.992 2298.27 322.23 2299.73 322.218C2321.21 322.051 2342.51 315.173 2360.55 302.426L2367.87 297.175C2390.12 281.003 2405.45 256.995 2410.23 230.429C2410.32 229.908 2410.37 229.38 2410.41 228.872C2410.46 228.36 2410.5 227.867 2410.59 227.387C2423.67 160.068 2489.03 113.675 2556.95 123.922L2556.95 123.923C2583.99 128.278 2612.33 121.714 2635.27 105.499L2643.39 99.6822C2662.84 85.7377 2676.8 65.7413 2683.31 43.2797C2683.56 42.4075 2683.72 41.5144 2683.81 40.6196C2687.48 5.56538 2706.02 -28.278 2737.62 -50.9295C2794.84 -91.944 2873.06 -80.6001 2912.36 -25.7348L2912.75 -25.1783C2928.24 -3.44705 2936.43 23.5864 2934.39 52.3513L2934.29 53.7221C2931.1 92.3405 2910.38 126.128 2880.49 147.557L2878.44 149.026C2847.45 170.558 2810.55 176.979 2777 169.629C2776.26 169.466 2775.51 169.348 2774.74 169.298C2750.9 167.737 2726.89 174.601 2707.11 189.002L2699.16 194.706C2676.54 211.375 2661.06 235.99 2656.33 263.118L2656.02 264.795C2643.04 332.265 2577.58 378.507 2509.66 368.259L2509.66 368.259C2482.62 363.903 2454.28 370.467 2431.34 386.682L2423.06 392.615C2400.96 408.995 2386.01 432.918 2381.81 459.444C2376.62 489.271 2360.57 516.811 2336.68 536.527L2336.68 536.527C2296.89 569.563 2262.58 561.744 2216.08 561.487C2194.27 561.366 2172.63 568.233 2154.54 581.407L2146.59 587.11C2123.98 603.779 2108.49 628.396 2103.76 655.524L2103.45 657.202C2090.57 724.145 2026.02 770.19 1958.68 760.894L1957.09 760.664C1930.05 756.309 1901.71 762.873 1878.77 779.087L1870.49 785.02C1848.39 801.4 1833.44 825.323 1829.24 851.85C1824.05 881.677 1808 909.216 1784.11 928.932L1784.11 928.933C1730.33 973.581 1651.61 967.967 1608.52 916.606C1608.56 916.469 1608.53 916.317 1608.43 916.2C1585.49 888.881 1576.4 852.554 1583.44 816.923L1583.44 816.92C1596.12 750.039 1660.72 703.734 1728.07 713.025L1729.66 713.255C1756.81 717.762 1785.04 711.045 1807.98 694.832L1815.3 689.58C1837.55 673.408 1852.88 649.4 1857.66 622.834C1857.75 622.313 1857.8 621.785 1857.84 621.278C1857.89 620.764 1857.93 620.27 1858.02 619.789L1858.02 619.789C1871.1 552.471 1936.46 506.081 2004.38 516.327L2004.38 516.328C2031.42 520.684 2059.76 514.12 2082.7 497.905L2090.82 492.088C2110.27 478.143 2124.23 458.147 2130.74 435.685C2141.88 397.216 2150.38 366.326 2185.05 341.476Z" stroke="url(#paint10_linear_1_1696)" stroke-width="0.721946"/>
<path d="M2177.77 331.423C2214.8 304.879 2259.83 298.265 2299.44 309.609C2300.83 310.007 2302.27 310.243 2303.72 310.235C2327.41 310.094 2350.92 302.529 2370.81 288.469L2378.87 282.693C2403.33 264.908 2420.19 238.507 2425.45 209.293C2425.55 208.723 2425.6 208.144 2425.65 207.586C2425.7 207.022 2425.75 206.477 2425.85 205.947C2440.24 131.877 2512.16 80.8328 2586.88 92.1076L2586.88 92.1083C2616.62 96.8982 2647.78 89.6803 2673.01 71.8491L2681.94 65.4508C2703.37 50.0902 2718.74 28.0507 2725.87 3.29847C2726.13 2.42635 2726.28 1.53413 2726.38 0.638918C2730.38 -37.9779 2750.79 -75.2721 2785.59 -100.223C2848.55 -145.35 2934.62 -132.869 2977.85 -72.5006L2978.29 -71.8885L2979.1 -70.7461C2995.62 -47.0329 3004.31 -17.7298 3002.1 13.4185L3001.99 14.9262C2998.48 57.4177 2975.69 94.5929 2942.8 118.17L2940.54 119.787C2906.41 143.502 2865.76 150.556 2828.82 142.432C2828.08 142.269 2827.32 142.151 2826.56 142.1C2800.3 140.355 2773.86 147.901 2752.08 163.76L2743.33 170.031L2743.33 170.034C2718.46 188.365 2701.43 215.434 2696.23 245.265L2695.89 247.113C2681.61 321.348 2609.58 372.226 2534.85 360.949C2505.11 356.16 2473.96 363.378 2448.73 381.209L2448.73 381.208L2439.63 387.731L2439.62 387.735C2415.32 405.747 2398.88 432.054 2394.26 461.224C2388.55 494.042 2370.89 524.343 2344.61 546.036L2344.61 546.037C2300.91 582.316 2263.2 573.875 2212.12 573.502C2188.07 573.326 2164.2 580.879 2144.25 595.406L2135.5 601.68C2110.64 620.01 2093.61 647.08 2088.4 676.912L2088.06 678.756C2073.9 752.413 2002.88 803.076 1928.77 792.848L1927.02 792.595C1897.29 787.806 1866.13 795.024 1840.9 812.854L1831.8 819.38C1807.49 837.393 1791.05 863.703 1786.43 892.875C1780.72 925.691 1763.06 955.991 1736.78 977.682L1736.78 977.683C1677.61 1026.81 1590.98 1020.63 1543.57 964.105C1543.61 963.961 1543.59 963.797 1543.48 963.672C1518.24 933.613 1508.24 893.641 1515.99 854.437L1515.99 854.434C1529.94 780.846 1601.01 729.898 1675.11 740.122L1676.86 740.374C1706.72 745.33 1737.76 737.944 1762.99 720.115L1771.05 714.337C1795.51 696.553 1812.36 670.153 1817.63 640.939C1817.73 640.369 1817.78 639.79 1817.83 639.231C1817.88 638.667 1817.93 638.123 1818.02 637.593C1832.42 563.522 1904.33 512.477 1979.06 523.754C2008.8 528.543 2039.96 521.325 2065.18 503.495L2074.11 497.096C2095.54 481.736 2110.91 459.696 2118.05 434.944C2130.24 392.663 2139.69 358.72 2177.77 331.423Z" stroke="url(#paint11_linear_1_1696)" stroke-width="0.721946"/>
<path d="M2169.76 320.364C2210.5 291.159 2260.05 283.883 2303.63 296.364C2305.15 296.8 2306.73 297.06 2308.33 297.051C2334.38 296.896 2360.23 288.576 2382.11 273.115L2390.97 266.761C2417.87 247.203 2436.41 218.17 2442.2 186.045C2442.31 185.42 2442.36 184.785 2442.42 184.17C2442.47 183.55 2442.53 182.949 2442.63 182.364C2458.47 100.867 2537.59 44.704 2619.82 57.1115C2652.51 62.378 2686.78 54.4412 2714.53 34.8328L2724.34 27.7949C2747.91 10.903 2764.81 -13.3334 2772.66 -40.553C2772.94 -41.51 2773.11 -42.4897 2773.21 -43.4728C2777.62 -85.9613 2800.07 -126.994 2838.37 -154.447C2907.63 -204.097 3002.33 -190.366 3049.9 -123.943L3050.39 -123.269C3069.43 -96.5428 3079.36 -63.1922 3076.46 -27.7493C3072.6 19.0025 3047.52 59.9045 3011.33 85.8454L3008.85 87.6239C2971.3 113.716 2926.57 121.478 2885.93 112.539C2885.11 112.36 2884.28 112.23 2883.45 112.174C2854.57 110.255 2825.49 118.554 2801.54 135.994L2791.92 142.895C2764.57 163.054 2745.84 192.822 2740.12 225.627L2739.74 227.657C2724.04 309.335 2644.79 365.315 2562.57 352.909L2562.57 352.908C2529.87 347.641 2495.6 355.578 2467.85 375.187L2457.84 382.366C2431.11 402.175 2413.04 431.107 2407.95 463.186C2401.67 499.293 2382.24 532.63 2353.32 556.497L2353.32 556.497C2305.24 596.414 2263.75 587.127 2207.56 586.717C2181.12 586.523 2154.87 594.828 2132.93 610.804L2123.31 617.705C2095.96 637.864 2077.23 667.632 2071.51 700.438L2071.13 702.469C2055.43 784.147 1976.18 840.125 1893.96 827.719L1893.96 827.718C1861.26 822.451 1826.99 830.388 1799.25 849.997L1789.23 857.176C1762.5 876.984 1744.43 905.915 1739.34 937.991C1733.06 974.1 1713.63 1007.44 1684.71 1031.31L1684.71 1031.31C1619.6 1085.37 1524.28 1078.56 1472.12 1016.35C1472.17 1016.2 1472.15 1016.02 1472.04 1015.89C1444.26 982.817 1433.26 938.837 1441.78 895.702L1441.78 895.699C1457.13 814.733 1535.33 758.677 1616.86 769.926L1618.79 770.204C1651.62 775.654 1685.76 767.532 1713.5 747.925L1722.36 741.571C1749.26 722.014 1767.8 692.981 1773.59 660.856C1773.7 660.23 1773.75 659.595 1773.81 658.98C1773.86 658.36 1773.92 657.759 1774.02 657.174C1789.74 576.314 1867.75 520.393 1949.28 531.644L1951.21 531.922C1983.91 537.188 2018.17 529.251 2045.92 509.643L2055.73 502.605C2079.3 485.713 2096.2 461.477 2104.05 434.257C2117.46 387.749 2127.86 350.4 2169.76 320.364Z" stroke="url(#paint12_linear_1_1696)" stroke-width="0.721946"/>
<path d="M2160.94 308.199C2205.77 276.067 2260.28 268.06 2308.23 281.793C2309.91 282.272 2311.64 282.557 2313.39 282.547C2342.04 282.376 2370.47 273.228 2394.53 256.224L2404.28 249.235C2433.87 227.728 2454.25 195.798 2460.61 160.47C2460.74 159.784 2460.8 159.087 2460.86 158.41C2460.92 157.729 2460.97 157.067 2461.09 156.421C2478.38 67.4554 2564.22 5.93016 2653.92 18.3085L2656.04 18.6152C2692 24.4065 2729.68 15.6775 2760.19 -5.88617L2770.99 -13.6278C2796.9 -32.2041 2815.49 -58.8575 2824.13 -88.7914C2824.43 -89.8416 2824.62 -90.9167 2824.73 -91.9962C2829.58 -138.744 2854.28 -183.889 2896.41 -214.092C2972.62 -268.718 3076.82 -253.614 3129.16 -180.531L3129.69 -179.79C3150.64 -150.384 3161.57 -113.69 3158.37 -74.6947C3154.13 -23.2565 3126.53 21.7452 3086.72 50.2859L3083.99 52.2431C3042.67 80.9502 2993.46 89.4902 2948.74 79.6547C2947.85 79.4581 2946.94 79.3159 2946.02 79.2547C2914.27 77.1441 2882.29 86.2709 2855.95 105.45L2845.37 113.038L2845.36 113.038L2845.36 113.041C2815.29 135.21 2794.7 167.947 2788.4 204.024L2787.99 206.257C2770.71 296.122 2683.51 357.713 2593.05 344.062L2593.05 344.062C2557.09 338.27 2519.41 346.999 2488.89 368.563L2477.88 376.455L2477.88 376.454L2477.88 376.459C2448.49 398.243 2428.61 430.058 2423.02 465.333C2416.1 505.061 2394.72 541.741 2362.91 568.001L2362.91 568.001C2310.01 611.921 2264.35 601.704 2202.55 601.252C2173.47 601.039 2144.6 610.173 2120.48 627.742L2109.89 635.33L2109.89 635.329L2109.89 635.333C2079.82 657.502 2059.22 690.239 2052.93 726.316L2052.52 728.548C2035.24 818.414 1948.04 880.004 1857.58 866.354L1857.58 866.353C1821.62 860.561 1783.93 869.29 1753.42 890.854L1742.41 898.747L1742.41 898.746L1742.41 898.75C1713.02 920.534 1693.14 952.349 1687.54 987.624C1680.63 1027.35 1659.25 1064.03 1627.44 1090.29L1627.44 1090.29C1555.8 1149.77 1450.91 1142.28 1393.52 1073.82C1393.59 1073.66 1393.57 1073.47 1393.45 1073.33C1362.89 1036.94 1350.78 988.552 1360.16 941.093L1360.16 941.09C1377.18 851.307 1464.44 789.365 1554.91 803.016C1591.01 809.01 1628.55 800.078 1659.06 778.516L1668.81 771.526C1698.4 750.019 1718.78 718.09 1725.14 682.762C1725.27 682.076 1725.33 681.379 1725.39 680.702C1725.45 680.019 1725.5 679.355 1725.62 678.709C1742.91 589.745 1828.75 528.222 1918.45 540.6L1920.57 540.907C1956.53 546.698 1994.21 537.969 2024.72 516.405L2035.52 508.664C2061.43 490.088 2080.02 463.434 2088.66 433.5C2103.41 382.342 2114.84 341.246 2160.94 308.199Z" stroke="url(#paint13_linear_1_1696)" stroke-width="0.721946"/>
<path d="M2151.25 294.818C2200.57 259.466 2260.55 250.658 2313.3 265.767C2315.14 266.293 2317.04 266.606 2318.97 266.594C2350.47 266.407 2381.74 256.345 2408.2 237.645L2418.92 229.958C2451.46 206.305 2473.88 171.192 2480.87 132.34C2481.01 131.588 2481.07 130.822 2481.14 130.077C2481.21 129.327 2481.27 128.597 2481.4 127.885C2500.57 29.2346 2596.35 -38.7487 2695.88 -23.7314L2695.88 -23.7307C2735.42 -17.3604 2776.87 -26.9604 2810.42 -50.6759L2822.3 -59.1913C2850.8 -79.6205 2871.24 -108.932 2880.74 -141.852C2881.07 -143.005 2881.28 -144.185 2881.4 -145.371C2886.73 -196.803 2913.91 -246.472 2960.27 -279.702C3044.11 -339.802 3158.75 -323.184 3216.33 -242.776L3216.92 -241.961C3239.97 -209.607 3252 -169.236 3248.48 -126.332C3243.81 -69.7384 3213.45 -20.2273 3169.64 11.1733L3166.64 13.3261C3121.19 44.9098 3067.05 54.3061 3017.84 43.4849C3016.86 43.269 3015.86 43.1129 3014.86 43.0458C2979.94 40.7247 2944.76 50.7605 2915.8 71.8529L2904.15 80.2027C2871.08 104.584 2848.43 140.587 2841.51 180.262L2841.06 182.718C2822.05 281.589 2726.11 349.352 2626.58 334.333L2626.58 334.333C2587.04 327.963 2545.59 337.562 2512.04 361.277L2499.92 369.962C2467.6 393.919 2445.74 428.908 2439.59 467.701C2431.98 511.41 2408.46 551.767 2373.46 580.658L2373.46 580.659C2315.26 628.981 2265.01 617.739 2197.04 617.242C2165.06 617.008 2133.31 627.052 2106.78 646.374L2095.14 654.723C2062.06 679.104 2039.41 715.107 2032.5 754.782L2032.04 757.238C2013.03 856.111 1917.09 923.873 1817.56 908.853C1778.02 902.484 1736.57 912.083 1703.02 935.798L1690.9 944.483C1659.08 968.066 1637.41 1002.34 1630.87 1040.41L1630.57 1042.22C1622.96 1085.93 1599.44 1126.29 1564.44 1155.18L1564.44 1155.18C1485.62 1220.62 1370.2 1212.38 1307.07 1137.04C1307.14 1136.87 1307.12 1136.67 1307 1136.51C1273.37 1096.48 1260.05 1043.24 1270.37 991.024L1270.37 991.021C1289.1 892.241 1385.11 824.092 1484.64 839.111C1524.34 845.703 1565.63 835.88 1599.18 812.166L1609.9 804.479C1642.44 780.825 1664.86 745.711 1671.85 706.86C1671.99 706.107 1672.06 705.342 1672.12 704.597C1672.19 703.847 1672.25 703.117 1672.39 702.405C1691.55 603.753 1787.33 535.77 1886.86 550.79L1886.86 550.789C1926.41 557.159 1967.85 547.56 2001.4 523.845L2013.28 515.33C2041.78 494.9 2062.23 465.589 2071.72 432.669C2087.95 376.396 2100.53 331.178 2151.25 294.818Z" stroke="url(#paint14_linear_1_1696)" stroke-width="0.721946"/>
<path d="M2140.59 280.1C2194.85 241.206 2260.83 231.515 2318.87 248.138C2320.89 248.716 2322.98 249.06 2325.1 249.047C2359.75 248.841 2394.13 237.775 2423.23 217.21L2435.03 208.754C2470.81 182.74 2495.46 144.124 2503.16 101.397C2503.31 100.571 2503.38 99.7301 2503.45 98.9103C2503.52 98.0858 2503.6 97.2811 2503.74 96.4957C2524.75 -11.6162 2629.38 -86.2493 2738.42 -70.4989L2739.71 -70.31C2783.2 -63.3055 2828.77 -73.8624 2865.68 -99.9433L2878.74 -109.31C2910.09 -131.778 2932.57 -164.014 2943.01 -200.218C2943.38 -201.483 2943.61 -202.78 2943.74 -204.082C2949.61 -260.668 2979.51 -315.314 3030.51 -351.873C3122.75 -417.993 3248.87 -399.712 3312.23 -311.246L3312.87 -310.349C3338.24 -274.754 3351.47 -230.336 3347.6 -183.132C3342.46 -120.869 3309.06 -66.3969 3260.86 -31.8505L3257.56 -29.482C3207.55 5.26582 3147.99 15.6027 3093.86 3.69727C3092.78 3.46012 3091.68 3.28887 3090.57 3.2152C3052.17 0.662568 3013.49 11.7002 2981.64 34.897L2968.82 44.0809C2932.45 70.8945 2907.54 110.49 2899.93 154.124L2899.43 156.825C2878.52 265.603 2772.97 340.154 2663.47 323.631L2663.47 323.631C2619.98 316.625 2574.4 327.182 2537.5 353.264L2524.17 362.816C2488.62 389.164 2464.58 427.644 2457.81 470.307C2449.45 518.396 2423.57 562.795 2385.06 594.581L2385.06 594.581C2321.03 647.746 2265.74 635.378 2190.98 634.832C2155.8 634.575 2120.89 645.62 2091.72 666.87L2078.9 676.054C2042.53 702.868 2017.62 742.463 2010.01 786.097L2009.51 788.8C1988.6 897.578 1883.05 972.128 1773.55 955.603C1730.06 948.599 1684.48 959.155 1647.58 985.236L1634.25 994.789C1598.7 1021.14 1574.66 1059.62 1567.9 1102.28C1559.53 1150.37 1533.65 1194.77 1495.14 1226.55L1495.14 1226.55C1408.41 1298.56 1281.42 1289.48 1211.96 1206.58C1212.05 1206.4 1212.04 1206.18 1211.9 1206.02C1174.91 1161.97 1160.25 1103.4 1171.61 1045.95L1171.61 1045.95C1192.13 937.692 1297.01 862.878 1406.06 878.627L1407.34 878.815C1451.01 886.065 1496.41 875.263 1533.31 849.183L1545.11 840.727C1580.89 814.714 1605.54 776.097 1613.24 733.369C1613.39 732.543 1613.46 731.703 1613.53 730.883C1613.6 730.058 1613.68 729.251 1613.82 728.465L1613.82 728.465C1634.91 619.931 1740.29 545.138 1849.79 561.662C1893.28 568.667 1938.86 558.11 1975.76 532.029L1988.82 522.663C2020.17 500.195 2042.65 467.959 2053.09 431.755C2070.94 369.856 2084.78 320.104 2140.59 280.1Z" stroke="url(#paint15_linear_1_1696)" stroke-width="0.721946"/>
<path d="M2128.86 263.908C2188.55 221.119 2261.15 210.457 2325 228.744C2327.22 229.38 2329.52 229.756 2331.84 229.743C2369.95 229.516 2407.76 217.347 2439.76 194.729L2452.74 185.428C2492.09 156.819 2519.21 114.348 2527.67 67.3572C2527.83 66.4506 2527.91 65.5282 2527.99 64.6263C2528.07 63.7193 2528.15 62.832 2528.31 61.9659C2551.51 -57.4424 2667.44 -139.729 2787.92 -121.549C2835.75 -113.845 2885.87 -125.456 2926.46 -154.139L2940.83 -164.443C2975.3 -189.152 3000.03 -224.605 3011.51 -264.422C3011.91 -265.812 3012.16 -267.236 3012.31 -268.667C3018.77 -330.921 3051.66 -391.041 3107.77 -431.262C3209.25 -504.005 3348.01 -483.894 3417.72 -386.563L3418.42 -385.578C3445.89 -347.028 3460.43 -299.073 3456.81 -248.048L3456.62 -245.616C3450.97 -177.114 3414.22 -117.186 3361.2 -79.1791L3357.57 -76.5739C3302.55 -38.3454 3237.02 -26.972 3177.47 -40.07C3176.28 -40.3306 3175.08 -40.5189 3173.86 -40.5997C3131.63 -43.4072 3089.08 -31.2684 3054.05 -5.75696L3039.96 4.34579C2999.96 33.8355 2972.56 77.3827 2964.2 125.37L2963.64 128.343C2940.63 248.018 2824.51 330.037 2704.04 311.857C2656.21 304.154 2606.08 315.763 2565.5 344.447L2550.84 354.955C2511.74 383.932 2485.31 426.251 2477.86 473.17C2468.66 526.077 2440.19 574.925 2397.83 609.895L2397.82 609.895C2327.37 668.387 2266.53 654.779 2184.31 654.178C2145.62 653.895 2107.23 666.044 2075.14 689.413L2061.05 699.516C2021.05 729.006 1993.65 772.553 1985.28 820.54L1984.73 823.512C1961.72 943.187 1845.6 1025.21 1725.13 1007.03L1725.13 1007.03C1677.3 999.322 1627.17 1010.93 1586.59 1039.62L1571.93 1050.12C1532.83 1079.1 1506.39 1121.42 1498.95 1168.34C1489.75 1221.25 1461.28 1270.09 1418.91 1305.06L1418.91 1305.06C1323.49 1384.29 1183.77 1374.3 1107.35 1283.07C1107.46 1282.88 1107.44 1282.64 1107.3 1282.47C1066.6 1234.01 1050.47 1169.57 1062.97 1106.36L1062.97 1106.36C1085.54 987.264 1200.93 904.954 1320.9 922.281L1322.31 922.489C1370.34 930.462 1420.27 918.581 1460.85 889.898L1473.83 880.597C1513.18 851.988 1540.3 809.518 1548.76 762.527C1548.92 761.621 1549 760.697 1549.08 759.795C1549.16 758.888 1549.24 758.001 1549.4 757.135C1572.51 638.194 1687.63 556.083 1807.59 573.412L1809.01 573.62C1856.84 581.324 1906.96 569.713 1947.55 541.03L1961.92 530.726C1996.39 506.017 2021.12 470.565 2032.6 430.748C2052.23 362.66 2067.46 307.921 2128.86 263.908Z" stroke="url(#paint16_linear_1_1696)" stroke-width="0.721946"/>
<path d="M2115.96 246.098C2181.63 199.023 2261.5 187.293 2331.75 207.413C2334.18 208.111 2336.71 208.525 2339.26 208.51C2381.17 208.261 2422.76 194.876 2457.95 170.001L2472.23 159.77C2515.51 128.305 2545.33 81.5959 2554.64 29.9157C2554.82 28.9201 2554.9 27.907 2554.99 26.9143C2555.08 25.9167 2555.17 24.939 2555.34 23.9842C2580.87 -107.384 2708.41 -197.912 2840.95 -177.911C2893.55 -169.439 2948.68 -182.208 2993.31 -213.754L3009.13 -225.088C3047.04 -252.264 3074.23 -291.255 3086.86 -335.045C3087.3 -336.572 3087.58 -338.136 3087.74 -339.708C3094.84 -408.198 3131.03 -474.339 3192.76 -518.589C3304.4 -598.617 3457.06 -576.493 3533.75 -469.412L3534.53 -468.328C3565.23 -425.243 3581.24 -371.48 3576.56 -314.346C3570.34 -238.983 3529.91 -173.052 3471.58 -131.239L3467.58 -128.372C3407.05 -86.3148 3334.96 -73.8028 3269.44 -88.2128C3268.14 -88.4991 3266.81 -88.7061 3265.48 -88.795C3219.03 -91.8825 3172.24 -78.5322 3133.71 -50.4744L3118.21 -39.3618C3074.21 -6.92835 3044.09 40.966 3034.88 93.7431L3034.27 97.0123C3008.96 228.674 2881.21 318.908 2748.67 298.907C2696.07 290.435 2640.94 303.203 2596.3 334.75L2580.18 346.308C2537.18 378.177 2508.1 424.721 2499.92 476.323C2489.79 534.529 2458.47 588.268 2411.86 626.74L2411.86 626.741C2334.35 691.093 2267.41 676.122 2176.97 675.461C2134.43 675.15 2092.2 688.51 2056.91 714.212L2041.41 725.325C1997.76 757.506 1967.76 804.908 1958.3 857.198L1958.08 858.434L1957.47 861.699C1932.16 993.361 1804.41 1083.59 1671.87 1063.59C1619.27 1055.12 1564.14 1067.89 1519.5 1099.44L1503.38 1110.99C1460.38 1142.86 1431.3 1189.41 1423.12 1241.01C1412.99 1299.22 1381.67 1352.95 1335.06 1391.43L1335.06 1391.43C1230.08 1478.59 1076.34 1467.59 992.274 1367.21C992.397 1367.01 992.391 1366.76 992.235 1366.57C947.458 1313.25 929.716 1242.35 943.462 1172.82L943.462 1172.82C968.397 1041.28 1096.24 950.532 1228.78 970.53L1228.78 970.531C1281.6 979.301 1336.52 966.234 1381.15 934.688L1395.42 924.456C1438.71 892.991 1468.53 846.282 1477.83 794.602C1478.01 793.607 1478.1 792.594 1478.19 791.601C1478.28 790.603 1478.36 789.626 1478.54 788.671C1504.07 657.303 1631.61 566.774 1764.14 586.775C1816.75 595.248 1871.88 582.479 1916.51 550.932L1932.32 539.598C1970.23 512.423 1997.43 473.432 2010.06 429.641C2031.66 354.746 2048.41 294.52 2115.96 246.098Z" stroke="url(#paint17_linear_1_1696)" stroke-width="0.721946"/>
<path d="M2101.77 226.507C2174.02 174.718 2261.88 161.813 2339.16 183.947C2341.84 184.715 2344.62 185.169 2347.42 185.153C2393.51 184.879 2439.25 170.159 2477.96 142.8L2493.66 131.546C2541.26 96.94 2574.06 45.568 2584.3 -11.2706C2584.49 -12.3639 2584.59 -13.477 2584.69 -14.5692C2584.78 -15.6663 2584.88 -16.7437 2585.08 -17.796C2613.05 -161.755 2752.38 -261.136 2897.57 -240.163L2899.28 -239.91C2957.14 -230.591 3017.77 -244.635 3066.86 -279.331L3084.25 -291.798C3125.95 -321.687 3155.86 -364.57 3169.74 -412.731C3170.23 -414.408 3170.53 -416.126 3170.71 -417.855C3178.52 -493.204 3218.34 -565.969 3286.25 -614.65C3409.07 -702.691 3577.02 -678.353 3661.39 -560.546L3662.24 -559.353C3696.02 -511.953 3713.64 -452.805 3708.48 -389.949C3701.64 -307.038 3657.16 -234.505 3592.99 -188.505L3588.59 -185.352C3522.01 -139.083 3442.69 -125.317 3370.61 -141.17C3369.18 -141.485 3367.72 -141.712 3366.26 -141.81C3315.17 -145.206 3263.71 -130.523 3221.34 -99.6644L3204.29 -87.4406C3155.9 -51.769 3122.77 0.906741 3112.64 58.9524L3111.97 62.5484C3084.23 206.83 2944.68 305.889 2799.48 284.914L2797.77 284.662C2739.91 275.343 2679.28 289.386 2630.19 324.083L2612.45 336.796C2565.16 371.848 2533.18 423.041 2524.18 479.795C2513.04 543.828 2478.58 602.946 2427.31 645.27L2427.31 645.271C2342.03 716.069 2268.38 699.598 2168.9 698.871C2122.11 698.529 2075.67 713.223 2036.86 741.491L2019.8 753.715C1971.42 789.386 1938.28 842.062 1928.16 900.108L1927.49 903.706C1899.64 1048.55 1759.1 1147.82 1613.29 1125.82L1613.29 1125.82C1555.43 1116.5 1494.8 1130.54 1445.71 1165.24L1427.97 1177.95C1380.68 1213 1348.7 1264.19 1339.7 1320.94C1328.56 1384.98 1294.1 1444.1 1242.83 1486.43L1242.83 1486.43C1127.32 1582.33 958.174 1570.22 865.689 1459.76C865.832 1459.56 865.832 1459.28 865.665 1459.08C816.403 1400.42 796.884 1322.42 812.006 1245.92L812.007 1245.92C839.334 1101.77 978.993 1002.15 1124.19 1023.12L1125.9 1023.38C1183.99 1033.02 1244.39 1018.65 1293.48 983.955L1309.18 972.701C1356.78 938.095 1389.58 886.723 1399.82 829.884C1400.01 828.791 1400.11 827.678 1400.2 826.586C1400.3 825.489 1400.4 824.411 1400.59 823.359C1428.57 679.4 1567.89 580.02 1713.09 600.994L1714.8 601.246C1772.65 610.564 1833.29 596.52 1882.38 561.824L1899.77 549.357C1941.47 519.469 1971.37 476.585 1985.26 428.424C2009.02 346.04 2027.45 279.779 2101.77 226.507Z" stroke="url(#paint18_linear_1_1696)" stroke-width="0.721946"/>
<path d="M2086.16 204.956C2165.64 147.982 2262.3 133.785 2347.32 158.136C2350.27 158.979 2353.31 159.479 2356.39 159.46C2407.09 159.159 2457.4 142.969 2499.97 112.879L2517.24 100.501L2517.24 100.502L2517.24 100.499C2569.6 62.4376 2605.67 5.93701 2616.92 -56.576C2617.14 -57.7766 2617.25 -58.9991 2617.35 -60.2009C2617.46 -61.4075 2617.56 -62.5946 2617.78 -63.7542C2648.55 -222.128 2801.83 -331.459 2961.57 -308.386L2963.45 -308.108C3027.08 -297.859 3093.76 -313.305 3147.76 -351.466L3166.89 -365.179C3212.75 -398.052 3245.64 -445.216 3260.92 -498.186C3261.45 -500.028 3261.78 -501.917 3261.98 -503.816C3270.57 -586.71 3314.37 -666.76 3389.09 -720.315C3524.21 -817.172 3708.97 -790.398 3801.79 -660.794L3802.73 -659.481C3839.89 -607.335 3859.27 -542.264 3853.6 -473.113C3846.08 -381.9 3797.14 -302.105 3726.54 -251.499L3721.7 -248.029C3648.45 -197.128 3561.19 -181.984 3481.89 -199.424C3480.32 -199.77 3478.73 -200.02 3477.11 -200.127C3420.93 -203.862 3364.33 -187.713 3317.73 -153.773L3298.97 -140.328C3245.75 -101.093 3209.31 -43.1562 3198.17 20.6862L3197.44 24.639C3166.8 183.99 3012.18 293.199 2851.77 268.992C2788.14 258.743 2721.45 274.188 2667.46 312.348L2647.95 326.332C2595.94 364.883 2560.77 421.185 2550.87 483.603C2538.61 554.05 2500.7 619.091 2444.29 665.653L2444.29 665.654C2350.48 743.542 2269.45 725.422 2160.03 724.622C2108.56 724.246 2057.49 740.408 2014.8 771.498L1996.04 784.943C1942.82 824.177 1906.38 882.112 1895.24 945.953L1894.51 949.909C1863.99 1108.64 1710.46 1217.62 1550.72 1194.54L1548.84 1194.26C1485.21 1184.01 1418.52 1199.46 1364.53 1237.62L1345.02 1251.6C1293.01 1290.15 1257.84 1346.46 1247.94 1408.87C1235.68 1479.32 1197.77 1544.36 1141.36 1590.92L1141.36 1590.92C1014.28 1696.43 828.188 1683.11 726.445 1561.56C726.61 1561.35 726.616 1561.05 726.437 1560.84C672.241 1496.31 650.768 1410.5 667.404 1326.34L667.405 1326.34C697.467 1167.75 851.11 1058.16 1010.85 1081.23L1012.73 1081.51C1076.62 1092.11 1143.05 1076.31 1197.04 1038.15L1214.31 1025.77C1266.66 987.709 1302.74 931.207 1313.99 868.694C1314.21 867.494 1314.32 866.271 1314.42 865.069C1314.53 863.862 1314.63 862.674 1314.85 861.513C1345.62 703.141 1498.9 593.812 1658.64 616.885L1660.52 617.163C1724.15 627.411 1790.83 611.966 1844.83 573.806L1863.96 560.092C1909.82 527.219 1942.71 480.055 1957.99 427.085C1984.12 336.463 2004.39 263.564 2086.16 204.956Z" stroke="url(#paint19_linear_1_1696)" stroke-width="0.721946"/>
<path d="M2069.01 181.28C2156.44 118.609 2262.77 102.992 2356.29 129.778C2359.53 130.706 2362.88 131.255 2366.26 131.235C2422.03 130.904 2477.37 113.095 2524.2 79.9955L2543.2 66.3784C2600.79 24.5108 2640.47 -37.641 2652.85 -106.405C2653.09 -107.726 2653.21 -109.071 2653.32 -110.393C2653.44 -111.72 2653.56 -113.026 2653.79 -114.301C2687.64 -288.512 2856.25 -408.776 3031.96 -383.396L3034.03 -383.09C3104.02 -371.816 3177.38 -388.807 3236.77 -430.783L3257.81 -445.868C3308.26 -482.028 3344.44 -533.909 3361.24 -592.177C3361.83 -594.203 3362.2 -596.28 3362.41 -598.369C3371.87 -689.553 3420.05 -777.608 3502.23 -836.518C3650.86 -943.061 3854.1 -913.61 3956.21 -771.045L3957.24 -769.601C3998.11 -712.24 4019.43 -640.661 4013.19 -564.595C4004.92 -464.261 3951.09 -376.486 3873.43 -320.82L3868.11 -317.003C3787.53 -261.012 3691.55 -244.353 3604.32 -263.538C3602.59 -263.918 3600.83 -264.193 3599.06 -264.311C3537.26 -268.42 3475 -250.656 3423.74 -213.322L3403.1 -198.531C3344.56 -155.374 3304.47 -91.6432 3292.23 -21.4167L3291.42 -17.0695C3257.85 157.532 3088.96 277.408 2913.25 252.024L2911.18 251.719C2841.19 240.445 2767.83 257.435 2708.44 299.412L2686.98 314.795C2629.77 357.201 2591.08 419.133 2580.19 487.792C2566.71 565.284 2525 636.829 2462.96 688.048L2462.96 688.048C2359.76 773.725 2270.63 753.793 2150.27 752.913C2093.66 752.499 2037.47 770.277 1990.51 804.476L1969.88 819.267C1911.34 862.423 1871.25 926.152 1859 996.377L1858.19 1000.73C1824.62 1175.33 1655.74 1295.21 1480.03 1269.82L1477.96 1269.52C1407.97 1258.24 1334.61 1275.23 1275.22 1317.21L1253.76 1332.59C1196.99 1374.67 1158.46 1435.97 1147.23 1503.99L1146.97 1505.59C1133.48 1583.08 1091.78 1654.63 1029.73 1705.85L1029.73 1705.85C889.947 1821.9 685.242 1807.25 573.325 1673.55C573.506 1673.32 573.512 1672.99 573.315 1672.75C513.7 1601.77 490.081 1507.37 508.38 1414.8L508.381 1414.8C541.449 1240.36 710.457 1119.8 886.17 1145.18L888.237 1145.49C958.515 1157.15 1031.59 1139.77 1090.98 1097.79L1109.98 1084.18C1167.57 1042.31 1207.25 980.157 1219.63 911.392C1219.87 910.072 1219.98 908.727 1220.1 907.405C1220.22 906.077 1220.33 904.77 1220.57 903.493L1220.57 903.493C1254.55 728.601 1424.35 608.08 1600.8 634.707C1670.8 645.981 1744.15 628.991 1803.54 587.015L1824.59 571.93C1875.03 535.77 1911.22 483.888 1928.02 425.621C1956.77 325.938 1979.07 245.749 2069.01 181.28Z" stroke="url(#paint20_linear_1_1696)" stroke-width="0.794141"/>
<path d="M2050.14 155.235C2146.31 86.2967 2263.28 69.1188 2366.15 98.5835C2369.72 99.6041 2373.4 100.209 2377.12 100.187C2438.47 99.8224 2499.34 80.232 2550.86 43.8227L2571.75 28.8435C2635.1 -17.2109 2678.75 -85.5771 2692.37 -161.218C2692.63 -162.671 2692.76 -164.15 2692.89 -165.604C2693.02 -167.064 2693.14 -168.5 2693.41 -169.903C2730.79 -362.285 2917.56 -494.861 3111.66 -465.573L3111.66 -465.572C3188.65 -453.17 3269.34 -471.859 3334.68 -518.033L3357.83 -534.627C3413.32 -574.403 3453.12 -631.473 3471.6 -695.566C3472.24 -697.795 3472.65 -700.08 3472.89 -702.378C3483.29 -802.68 3536.28 -899.54 3626.69 -964.342C3790.18 -1081.54 4013.74 -1049.14 4126.06 -892.321L4127.2 -890.733C4172.16 -827.636 4195.61 -748.899 4188.75 -665.227C4179.64 -554.859 4120.43 -458.307 4035.01 -397.073L4029.15 -392.876C3940.52 -331.285 3834.94 -312.961 3738.98 -334.064C3737.08 -334.482 3735.15 -334.785 3733.2 -334.914C3665.21 -339.434 3596.73 -319.893 3540.34 -278.827L3517.64 -262.556C3453.25 -215.083 3409.15 -144.979 3395.68 -67.7302L3394.79 -62.9483C3357.86 129.114 3172.09 260.976 2978.81 233.055L2976.54 232.719C2899.54 220.318 2818.85 239.007 2753.52 285.181L2729.91 302.102C2666.97 348.749 2624.42 416.874 2612.44 492.399C2597.61 577.64 2551.74 656.339 2483.49 712.68L2483.49 712.681C2369.97 806.925 2271.92 785 2139.52 784.033C2077.25 783.578 2015.45 803.133 1963.8 840.751L1941.1 857.021C1876.7 904.494 1832.61 974.595 1819.14 1051.84L1818.24 1056.63C1781.32 1248.69 1595.55 1380.55 1402.26 1352.63L1399.99 1352.3C1323 1339.9 1242.3 1358.58 1176.97 1404.76L1153.37 1421.68C1090.43 1468.33 1047.87 1536.45 1035.9 1611.98C1021.06 1697.22 975.192 1775.92 906.941 1832.26L906.94 1832.26C753.175 1959.92 528 1943.8 404.891 1796.73C405.09 1796.48 405.096 1796.11 404.879 1795.85C339.302 1717.77 313.321 1613.94 333.45 1512.11L333.452 1512.11C369.97 1319.47 557.195 1186.57 751.293 1215.86L751.292 1215.86C828.599 1228.7 908.98 1209.57 974.309 1163.4L995.206 1148.42C1058.56 1102.37 1102.2 1034 1115.82 958.359C1116.09 956.907 1116.21 955.428 1116.34 953.974C1116.47 952.513 1116.6 951.075 1116.86 949.671L1116.86 949.67C1154.24 757.288 1341.02 624.715 1535.12 654.006C1612.11 666.407 1692.8 647.719 1758.13 601.544L1781.28 584.951C1836.77 545.175 1876.57 488.106 1895.05 424.012C1926.68 314.36 1951.21 226.151 2050.14 155.235Z" stroke="url(#paint21_linear_1_1696)" stroke-width="0.873555"/>
<path d="M2029.39 126.588C2135.18 50.7557 2263.84 31.8604 2377 64.2717C2380.92 65.3943 2384.98 66.0581 2389.07 66.0338C2456.55 65.633 2523.51 44.0844 2580.17 4.03428L2603.16 -12.4429C2672.85 -63.1028 2720.86 -138.306 2735.84 -221.511C2736.13 -223.109 2736.27 -224.736 2736.41 -226.336C2736.55 -227.942 2736.69 -229.522 2736.98 -231.065C2777.94 -441.861 2981.95 -587.379 3194.56 -556.669L3197.06 -556.3C3281.76 -542.658 3370.51 -563.216 3442.38 -614.008L3467.84 -632.261C3528.88 -676.014 3572.66 -738.791 3593 -809.294C3593.7 -811.746 3594.15 -814.259 3594.41 -816.787C3605.85 -927.119 3664.15 -1033.66 3763.59 -1104.95C3943.43 -1233.86 4189.35 -1198.23 4312.9 -1025.72L4314.15 -1023.98C4363.22 -955.112 4389 -869.313 4382.03 -778.077L4381.85 -775.92C4371.84 -654.516 4306.71 -548.308 4212.74 -480.951L4206.3 -476.334C4108.8 -408.584 3992.66 -388.428 3887.12 -411.642C3885.02 -412.102 3882.9 -412.433 3880.75 -412.576C3805.97 -417.547 3730.64 -396.054 3668.61 -350.88L3643.64 -332.983C3572.81 -280.764 3524.3 -203.652 3509.49 -118.68L3508.5 -113.414C3467.73 98.6822 3261.93 244.04 3048.42 211.82C2963.73 198.179 2874.97 218.737 2803.11 269.528L2777.14 288.141C2707.91 339.453 2661.09 414.39 2647.92 497.467C2631.61 591.233 2581.15 677.802 2506.07 739.777L2506.07 739.778C2381.2 843.446 2273.35 819.329 2127.71 818.265C2059.21 817.764 1991.23 839.274 1934.41 880.655L1909.44 898.552C1838.61 950.771 1790.1 1027.88 1775.28 1112.86L1774.3 1118.12C1733.53 1330.22 1527.73 1475.57 1314.23 1443.36L1314.23 1443.36C1229.53 1429.71 1140.77 1450.27 1068.9 1501.06L1042.94 1519.68C973.706 1570.99 926.894 1645.93 913.72 1729C897.406 1822.77 846.945 1909.34 771.87 1971.31L771.869 1971.31C602.727 2111.74 355.036 2094.01 219.616 1932.23C219.835 1931.96 219.84 1931.55 219.602 1931.27C147.467 1845.38 118.888 1731.16 141.03 1619.15L141.031 1619.15C181.2 1407.25 387.144 1261.06 600.649 1293.28L600.649 1293.28C685.689 1307.4 774.11 1286.36 845.974 1235.57L868.961 1219.09C938.646 1168.43 986.658 1093.23 1001.64 1010.02C1001.93 1008.43 1002.07 1006.8 1002.21 1005.2C1002.35 1003.59 1002.49 1002.01 1002.78 1000.47L1002.78 1000.47C1043.9 788.85 1249.35 643.018 1462.86 675.234L1462.86 675.235C1547.55 688.878 1636.31 668.32 1708.18 617.527L1733.64 599.275C1794.68 555.522 1838.46 492.745 1858.79 422.242C1893.58 301.625 1920.56 204.596 2029.39 126.588Z" stroke="url(#paint22_linear_1_1696)" stroke-width="0.960911"/>
<path d="M2006.56 95.0752C2122.93 11.6593 2264.45 -9.12607 2388.93 26.5262C2393.25 27.7611 2397.71 28.4927 2402.21 28.4659C2476.44 28.0251 2550.09 4.32055 2612.42 -39.7347L2637.71 -57.8595C2714.36 -113.585 2767.18 -196.309 2783.66 -287.834C2783.97 -289.592 2784.13 -291.381 2784.28 -293.14C2784.44 -294.907 2784.59 -296.645 2784.91 -298.343C2829.97 -530.218 3054.38 -690.289 3288.25 -656.508L3291 -656.102C3384.16 -641.096 3481.8 -663.71 3560.85 -719.581L3588.86 -739.659C3656 -787.787 3704.16 -856.842 3726.53 -934.395C3727.31 -937.092 3727.8 -939.856 3728.09 -942.637C3740.67 -1064 3804.79 -1181.2 3914.18 -1259.61C4112.01 -1401.42 4382.52 -1362.22 4518.42 -1172.47L4519.8 -1170.55C4574.2 -1094.2 4602.58 -998.928 4594.27 -897.685C4583.26 -764.14 4511.61 -647.312 4408.25 -573.219L4401.16 -568.14C4293.91 -493.615 4166.16 -471.443 4050.06 -496.977C4047.76 -497.484 4045.42 -497.849 4043.06 -498.006C3960.8 -503.474 3877.93 -479.831 3809.7 -430.14L3782.24 -410.454C3704.32 -353.012 3650.97 -268.189 3634.67 -174.72L3633.59 -168.928C3588.73 64.3784 3362.36 224.272 3127.5 188.83L3127.5 188.831C3034.33 173.825 2936.7 196.438 2857.65 252.309L2829.09 272.783C2752.93 329.226 2701.44 411.657 2686.94 503.043C2669 606.184 2613.49 701.41 2530.91 769.583L2530.91 769.583C2393.56 883.619 2274.92 857.09 2114.71 855.919C2039.37 855.368 1964.58 879.031 1902.08 924.549L1874.62 944.235C1796.7 1001.68 1743.35 1086.5 1727.05 1179.97L1725.97 1185.76C1681.11 1419.07 1454.74 1578.96 1219.88 1543.52C1126.71 1528.51 1029.08 1551.13 950.028 1607L921.466 1627.47C845.308 1683.92 793.813 1766.35 779.322 1857.74C761.376 1960.88 705.871 2056.1 623.29 2124.27L623.288 2124.27C437.232 2278.74 164.771 2259.24 15.8095 2081.28C16.0507 2080.98 16.0566 2080.54 15.7949 2080.22C-63.5534 1985.74 -94.9906 1860.11 -70.6339 1736.89L-70.6332 1736.89C-26.6193 1504.71 198.33 1344.25 432.204 1378.03L434.956 1378.43C528.496 1393.96 625.756 1370.82 704.805 1314.95L730.09 1296.83C806.743 1241.1 859.557 1158.38 876.038 1066.86C876.354 1065.1 876.508 1063.31 876.663 1061.55C876.818 1059.78 876.975 1058.04 877.29 1056.35C922.345 824.471 1146.76 664.4 1380.63 698.182L1383.38 698.588C1476.54 713.593 1574.18 690.979 1653.23 635.108L1681.24 615.03C1748.38 566.902 1796.54 497.848 1818.91 420.294C1857.17 287.615 1886.85 180.884 2006.56 95.0752Z" stroke="url(#paint23_linear_1_1696)" stroke-width="1.057"/>
<path d="M1981.45 60.4113C2109.46 -31.3462 2265.13 -54.2097 2402.06 -14.9922C2406.8 -13.6337 2411.71 -12.8296 2416.66 -12.8591C2498.31 -13.3441 2579.34 -39.4182 2647.9 -87.8789L2675.71 -107.816C2760.03 -169.114 2818.13 -260.11 2836.26 -360.788C2836.61 -362.722 2836.78 -364.69 2836.95 -366.626C2837.12 -368.57 2837.29 -370.481 2837.64 -372.349C2887.39 -628.41 3135.99 -804.866 3394.33 -765.884L3394.33 -765.883C3496.81 -749.375 3604.21 -774.252 3691.17 -835.711L3691.17 -835.71L3721.98 -857.795C3795.84 -910.737 3848.81 -986.697 3873.41 -1072.01C3874.27 -1074.97 3874.81 -1078.01 3875.13 -1081.07C3888.97 -1214.57 3959.51 -1343.5 4079.83 -1429.75C4297.44 -1585.73 4595.01 -1542.62 4744.5 -1333.89L4746.01 -1331.77C4805.86 -1247.79 4837.07 -1142.99 4827.93 -1031.62C4815.82 -884.725 4737.01 -756.214 4623.31 -674.712L4615.51 -669.125C4497.54 -587.148 4357.01 -562.758 4229.3 -590.846C4226.77 -591.403 4224.2 -591.805 4221.6 -591.978C4131.11 -597.993 4039.96 -571.985 3964.91 -517.325L3934.7 -495.67C3848.99 -432.484 3790.3 -339.179 3772.37 -236.363L3771.18 -229.991C3722.03 25.6433 3474.77 201.153 3217.51 163.989L3214.48 163.542C3112 147.036 3004.6 171.911 2917.65 233.369L2886.23 255.89C2803.11 317.494 2746.7 407.242 2730.25 506.83L2729.87 509.184C2710.13 622.637 2649.07 727.382 2558.23 802.37L2558.23 802.371C2407.15 927.81 2276.64 898.628 2100.42 897.34C2017.54 896.734 1935.28 922.762 1866.53 972.832L1836.32 994.487C1750.6 1057.67 1691.91 1150.98 1673.98 1253.8L1672.8 1260.17C1623.65 1515.8 1376.39 1691.31 1119.13 1654.15L1116.1 1653.7C1013.62 1637.19 906.22 1662.07 819.264 1723.53L787.853 1746.04L787.846 1746.05C704.727 1807.65 648.315 1897.4 631.87 1996.99L631.49 1999.33C611.751 2112.79 550.693 2217.54 459.852 2292.53L459.851 2292.53C255.19 2462.45 -44.5168 2440.99 -208.375 2245.24C-208.11 2244.91 -208.105 2244.42 -208.393 2244.07C-295.676 2140.14 -330.256 2001.95 -303.464 1866.41L-303.463 1866.41C-255.048 1611.01 -7.60409 1434.5 249.657 1471.66L252.684 1472.11C355.579 1489.19 462.565 1463.73 549.518 1402.28L577.332 1382.34C661.651 1321.04 719.745 1230.05 737.874 1129.37C738.223 1127.44 738.393 1125.47 738.563 1123.53C738.734 1121.59 738.905 1119.67 739.253 1117.8C788.815 862.744 1035.67 686.669 1292.92 723.828L1295.95 724.275C1398.43 740.781 1505.83 715.906 1592.79 654.448L1623.6 632.362C1697.45 579.42 1750.43 503.461 1775.03 418.152C1817.12 272.205 1849.77 154.801 1981.45 60.4113Z" stroke="url(#paint24_linear_1_1696)" stroke-width="1.1627"/>
<path d="M1953.83 22.2808C2094.63 -78.6525 2265.88 -103.803 2416.5 -60.6637C2421.72 -59.1694 2427.11 -58.2852 2432.56 -58.3175C2522.38 -58.851 2611.5 -87.5318 2686.92 -140.839L2717.52 -162.77C2810.27 -230.198 2874.17 -330.294 2894.12 -441.039C2894.5 -443.166 2894.69 -445.331 2894.87 -447.46C2895.06 -449.6 2895.25 -451.704 2895.63 -453.761C2950.15 -734.327 3221.69 -928.01 3504.67 -887.135L3508 -886.643C3620.73 -868.486 3738.87 -895.849 3834.52 -963.453L3868.41 -987.747C3949.65 -1045.98 4007.93 -1129.54 4034.99 -1223.38C4035.93 -1226.64 4036.52 -1229.99 4036.87 -1233.35C4052.1 -1380.2 4129.69 -1522.02 4262.05 -1616.89C4501.42 -1788.48 4828.74 -1741.05 4993.18 -1511.45L4994.84 -1509.12C5060.67 -1416.74 5095.01 -1301.46 5084.96 -1178.96C5071.63 -1017.37 4984.94 -876.007 4859.87 -786.355L4851.3 -780.209C4721.53 -690.035 4566.95 -663.206 4426.46 -694.103C4423.68 -694.716 4420.85 -695.158 4417.99 -695.348C4318.46 -701.964 4218.19 -673.355 4135.63 -613.23L4102.4 -589.409C4008.12 -519.905 3943.56 -417.269 3923.84 -304.171L3922.53 -297.162C3868.25 -14.8614 3594.34 178.609 3310.16 135.724C3197.44 117.568 3079.3 144.93 2983.64 212.534L2949.08 237.307C2856.94 305.603 2794.63 405.345 2777.09 515.921C2755.38 640.722 2688.22 755.946 2588.29 838.434L2588.29 838.436C2422.09 976.419 2278.54 944.318 2084.69 942.902C1993.53 942.235 1903.04 970.865 1827.41 1025.94L1794.19 1049.76L1794.18 1049.77C1699.9 1119.27 1635.34 1221.91 1615.61 1335.01L1614.31 1342.01C1560.25 1623.21 1288.26 1816.27 1005.27 1775.39L1001.94 1774.9C889.215 1756.74 771.076 1784.1 675.425 1851.71L640.872 1876.48L640.871 1876.47L640.864 1876.48C548.715 1944.78 486.407 2044.52 468.872 2155.09C447.158 2279.9 379.996 2395.12 280.07 2477.61L280.069 2477.61C54.941 2664.52 -274.736 2640.92 -454.979 2425.59C-454.688 2425.22 -454.682 2424.69 -454.998 2424.31C-551.01 2309.99 -589.049 2157.97 -559.578 2008.88L-559.577 2008.87C-506.32 1727.94 -234.131 1533.78 48.8565 1574.65L52.1865 1575.14C165.371 1593.94 283.055 1565.94 378.703 1498.33L409.298 1476.4C502.049 1408.98 565.953 1308.88 585.895 1198.13C586.278 1196.01 586.465 1193.84 586.652 1191.71C586.84 1189.57 587.029 1187.47 587.411 1185.42C642.141 903.749 915.601 709.646 1199.78 752.53C1312.51 770.687 1430.65 743.324 1526.3 675.72L1560.19 651.426C1641.43 593.19 1699.7 509.635 1726.77 415.795C1773.07 255.253 1808.98 126.109 1953.83 22.2808Z" stroke="url(#paint25_linear_1_1696)" stroke-width="1.27897"/>
<path d="M1923.44 -19.6632C2078.33 -130.69 2266.7 -158.354 2432.38 -110.901C2438.12 -109.257 2444.06 -108.285 2450.05 -108.32C2548.85 -108.907 2646.88 -140.457 2729.85 -199.094L2763.5 -223.218C2865.53 -297.389 2935.82 -407.495 2957.76 -529.315C2958.18 -531.655 2958.39 -534.036 2958.59 -536.379C2958.8 -538.73 2959.01 -541.043 2959.43 -543.303C3019.4 -851.929 3318.09 -1064.98 3629.37 -1020.02L3633.03 -1019.48C3757.03 -999.507 3886.99 -1029.61 3992.2 -1103.97L4029.48 -1130.69C4118.85 -1194.75 4182.95 -1286.66 4212.72 -1389.89C4213.76 -1393.48 4214.41 -1397.16 4214.79 -1400.86C4231.54 -1562.4 4316.89 -1718.39 4462.48 -1822.75C4725.8 -2011.5 5085.85 -1959.33 5266.73 -1706.76L5268.56 -1704.21C5340.41 -1603.38 5378.15 -1477.76 5367.94 -1344.18L5367.69 -1341.03C5353.03 -1163.28 5257.67 -1007.78 5120.09 -909.162L5110.66 -902.402C4967.91 -803.21 4797.87 -773.698 4643.34 -807.685C4640.28 -808.359 4637.17 -808.845 4634.02 -809.054C4524.54 -816.333 4414.24 -784.862 4323.43 -718.724L4286.88 -692.527L4286.88 -692.528L4286.87 -692.521C4183.16 -616.065 4112.14 -503.163 4090.45 -378.752L4089.02 -371.051C4029.55 -61.7328 3730.36 150.634 3419.07 105.666L3415.41 105.125C3291.41 85.1525 3161.46 115.251 3056.24 189.616L3018.24 216.859L3018.23 216.859L3018.23 216.866C2916.86 291.992 2848.32 401.707 2829.04 523.341C2805.15 660.623 2731.27 787.369 2621.35 878.107L2621.35 878.108C2438.54 1029.89 2280.62 994.579 2067.4 993.02C1967.11 992.288 1867.57 1023.78 1784.39 1084.37L1747.83 1110.57C1644.12 1187.02 1573.1 1299.92 1551.41 1424.33L1549.97 1432.04C1490.27 1742.57 1188.97 1955.39 876.368 1908.22C752.369 1888.24 622.415 1918.34 517.199 1992.71L479.183 2019.96C377.819 2095.08 309.28 2204.8 289.992 2326.43C266.107 2463.71 192.228 2590.46 82.3102 2681.2L82.3086 2681.2C-165.332 2886.8 -527.977 2860.84 -726.245 2623.98C-725.924 2623.58 -725.917 2622.98 -726.265 2622.57C-831.878 2496.81 -873.721 2329.59 -841.303 2165.6L-841.302 2165.59C-782.49 1855.35 -480.96 1641.31 -168.363 1688.49C-43.8603 1709.16 85.5928 1678.36 190.806 1604L224.461 1579.87C326.487 1505.7 396.781 1395.6 418.718 1273.78C419.139 1271.44 419.344 1269.05 419.55 1266.71C419.757 1264.36 419.964 1262.04 420.385 1259.78C480.355 951.16 779.05 738.108 1090.33 783.071L1093.99 783.612C1217.99 803.584 1347.94 773.485 1453.16 699.121L1490.44 672.397C1579.81 608.338 1643.91 516.427 1673.68 413.203C1724.61 236.607 1764.11 94.5478 1923.44 -19.6632Z" stroke="url(#paint26_linear_1_1696)" stroke-width="1.40687"/>
<path d="M1890.02 -65.8008C2060.4 -187.93 2267.61 -218.361 2449.86 -166.162C2456.17 -164.354 2462.7 -163.284 2469.29 -163.323C2577.97 -163.969 2685.81 -198.674 2777.07 -263.175L2814.09 -289.711C2926.32 -371.299 3003.64 -492.415 3027.77 -626.417C3028.23 -628.991 3028.46 -631.611 3028.69 -634.187C3028.91 -636.774 3029.14 -639.318 3029.6 -641.804L3029.61 -641.804C3095.83 -982.624 3426.72 -1217.49 3770.57 -1165.6C3906.97 -1143.63 4049.92 -1176.74 4165.66 -1258.54L4206.67 -1287.93C4304.97 -1358.4 4375.48 -1459.5 4408.23 -1573.05C4409.37 -1577 4410.09 -1581.04 4410.51 -1585.12C4428.93 -1762.81 4522.81 -1934.4 4682.97 -2049.2C4972.61 -2256.82 5368.67 -2199.43 5567.64 -1921.61L5569.65 -1918.8C5649.31 -1807.02 5690.85 -1667.53 5678.69 -1519.3C5662.57 -1323.78 5557.67 -1152.73 5406.33 -1044.25L5395.96 -1036.81C5238.94 -927.701 5051.9 -895.239 4881.91 -932.624C4878.54 -933.365 4875.12 -933.9 4871.66 -934.13C4751.22 -942.136 4629.9 -907.52 4530.01 -834.768L4489.8 -805.944C4375.71 -721.842 4297.59 -597.65 4273.73 -460.798L4272.15 -452.321C4206.73 -112.075 3877.63 121.527 3535.22 72.0619L3531.19 71.4665C3394.79 49.4971 3251.84 82.6052 3136.1 164.406L3094.28 194.381C2982.78 277.019 2907.39 397.707 2886.17 531.504C2859.9 682.514 2778.63 821.935 2657.72 921.746L2657.72 921.747C2456.62 1088.71 2282.92 1049.87 2048.37 1048.15C1938.06 1047.35 1828.57 1081.99 1737.06 1148.63L1696.85 1177.46C1582.77 1261.56 1504.65 1385.75 1480.79 1522.59L1479.21 1531.07C1413.53 1872.66 1082.1 2106.76 738.24 2054.87C601.841 2032.9 458.893 2066.01 343.155 2147.81L301.336 2177.78C189.836 2260.42 114.444 2381.11 93.2262 2514.9C66.953 2665.91 -14.3135 2805.33 -135.223 2905.15L-135.225 2905.15C-407.63 3131.31 -806.538 3102.75 -1024.63 2842.21C-1024.28 2841.76 -1024.27 2841.11 -1024.66 2840.65C-1140.83 2702.32 -1186.86 2518.38 -1151.2 2337.98L-1151.2 2337.98C-1086.5 1996.71 -754.82 1761.27 -410.964 1813.16C-274.011 1835.9 -131.613 1802.02 -15.8779 1720.23L21.1424 1693.69C133.371 1612.1 210.695 1490.99 234.824 1356.98C235.288 1354.41 235.515 1351.79 235.741 1349.21C235.969 1346.62 236.195 1344.08 236.659 1341.59C302.885 1000.77 633.771 765.912 977.624 817.802C1114.02 839.771 1256.97 806.663 1372.71 724.862L1413.72 695.466C1512.02 625.001 1582.53 523.898 1615.28 410.352C1671.3 216.097 1714.76 59.8313 1890.02 -65.8008Z" stroke="url(#paint27_linear_1_1696)" stroke-width="1.54756"/>
<path d="M1853.26 -116.552C2040.67 -250.894 2268.6 -284.369 2469.07 -226.951C2476.02 -224.962 2483.2 -223.785 2490.45 -223.828C2609.06 -224.533 2726.77 -262.119 2826.65 -332.008L2829.01 -333.665L2869.73 -362.855C2993.18 -452.602 3078.24 -585.829 3104.78 -733.232C3105.29 -736.063 3105.54 -738.945 3105.79 -741.779C3106.04 -744.626 3106.29 -747.427 3106.8 -750.164C3179.36 -1123.6 3540.78 -1381.39 3917.43 -1326.98L3921.86 -1326.33C4071.9 -1302.16 4229.14 -1338.58 4356.46 -1428.56L4401.57 -1460.9C4509.7 -1538.41 4587.26 -1649.62 4623.28 -1774.53C4624.54 -1778.87 4625.33 -1783.32 4625.79 -1787.8C4646.05 -1983.26 4749.33 -2172.01 4925.5 -2298.29C5244.1 -2526.68 5679.77 -2463.54 5898.64 -2157.94L5900.85 -2154.85C5987.79 -2032.85 6033.45 -1880.85 6021.1 -1719.22L6020.8 -1715.4C6003.06 -1500.33 5887.67 -1312.17 5721.2 -1192.85L5709.79 -1184.67C5537.07 -1064.64 5331.32 -1028.94 5144.34 -1070.06C5140.63 -1070.87 5136.86 -1071.46 5133.06 -1071.72C5000.58 -1080.52 4867.12 -1042.44 4757.24 -962.417L4713.01 -930.712C4587.52 -838.199 4501.59 -701.587 4475.34 -551.05L4473.6 -541.731C4401.36 -165.989 4036.78 91.5206 3658.54 34.4407C3508.5 10.2745 3351.26 46.6935 3223.94 136.674L3177.94 169.647C3055.29 260.549 2972.36 393.305 2949.02 540.483C2920.12 706.594 2830.73 859.956 2697.73 969.749L2697.73 969.75C2476.52 1153.41 2285.45 1110.68 2027.44 1108.79C1906.09 1107.91 1785.66 1146.01 1685 1219.32L1640.77 1251.03C1515.28 1343.54 1429.35 1480.15 1403.1 1630.68L1401.36 1640.01C1329.11 2015.75 964.544 2273.26 586.305 2216.18L586.306 2216.18C436.264 2192.01 279.017 2228.43 151.702 2318.41L105.714 2351.38L105.703 2351.39C-16.9476 2442.29 -99.8784 2575.05 -123.218 2722.22C-152.119 2888.33 -241.512 3041.7 -374.513 3151.49L-374.515 3151.49C-674.16 3400.27 -1112.96 3368.85 -1352.86 3082.26C-1352.48 3081.77 -1352.47 3081.05 -1352.89 3080.55C-1480.68 2928.38 -1531.31 2726.05 -1492.08 2527.61L-1492.08 2527.6C-1421.2 2153.68 -1058.92 1895.25 -682.259 1949.65L-677.827 1950.31C-527.179 1975.32 -370.541 1938.05 -243.233 1848.07L-202.511 1818.88C-79.0594 1729.14 5.99724 1595.91 32.5401 1448.51C33.0499 1445.68 33.2982 1442.8 33.5473 1439.96C33.7975 1437.12 34.0486 1434.32 34.5573 1431.58C107.118 1058.15 468.54 800.35 845.188 854.755L849.62 855.41C999.659 879.576 1156.9 843.156 1284.21 753.176L1329.32 720.84C1437.46 643.329 1515.02 532.116 1551.04 407.216C1612.66 193.534 1660.47 21.6433 1853.26 -116.552Z" stroke="url(#paint28_linear_1_1696)" stroke-width="1.70231"/>
<path d="M1812.81 -172.379C2018.97 -320.155 2269.69 -356.978 2490.21 -293.817C2497.85 -291.63 2505.75 -290.336 2513.73 -290.383C2645.23 -291.164 2775.72 -333.157 2886.14 -411.203L2930.94 -443.312C3066.73 -542.034 3160.29 -688.583 3189.49 -850.726C3190.05 -853.84 3190.33 -857.011 3190.6 -860.128C3190.88 -863.26 3191.15 -866.341 3191.71 -869.351C3271.69 -1280.93 3670.65 -1564.81 4085.84 -1503.5L4088.28 -1503.13C4253.32 -1476.55 4426.29 -1516.61 4566.33 -1615.59L4615.96 -1651.16C4734.9 -1736.42 4820.22 -1858.76 4859.84 -1996.15C4861.22 -2000.93 4862.09 -2005.82 4862.6 -2010.75C4884.89 -2225.76 4998.49 -2433.38 5192.28 -2572.29C5542.75 -2823.51 6021.97 -2754.07 6262.73 -2417.91L6265.17 -2414.51C6360.8 -2280.31 6411.03 -2113.11 6397.44 -1935.32L6397.11 -1931.11C6377.6 -1694.53 6250.67 -1487.56 6067.55 -1356.3L6055 -1347.3C5865 -1215.28 5638.68 -1176 5433 -1221.24C5428.92 -1222.13 5424.78 -1222.78 5420.6 -1223.06C5274.87 -1232.75 5128.07 -1190.86 5007.2 -1102.83L4958.54 -1067.95C4820.5 -966.193 4725.98 -815.924 4697.11 -650.338L4695.19 -640.07C4615.73 -226.76 4214.7 56.4972 3798.63 -6.28531L3798.63 -6.28588C3633.59 -32.8717 3460.62 7.1892 3320.57 106.17L3269.98 142.436L3269.97 142.441C3135.06 242.433 3043.83 388.464 3018.16 550.359C2986.37 733.081 2888.04 901.78 2741.73 1022.55L2741.73 1022.55C2498.4 1224.57 2288.22 1177.58 2004.42 1175.5C1870.94 1174.53 1738.45 1216.45 1627.73 1297.08L1579.08 1331.96C1441.04 1433.72 1346.52 1583.99 1317.64 1749.58L1315.73 1759.84C1236.26 2173.15 835.226 2456.42 419.159 2393.63C254.116 2367.04 81.1481 2407.11 -58.8949 2506.08L-109.494 2542.35C-244.41 2642.35 -335.634 2788.38 -361.307 2950.27C-393.098 3133 -491.431 3301.69 -637.732 3422.47L-637.734 3422.47C-967.343 3696.12 -1450.02 3661.57 -1713.92 3346.31C-1713.49 3345.77 -1713.48 3344.98 -1713.95 3344.43C-1854.52 3177.05 -1910.21 2954.48 -1867.06 2736.2L-1867.06 2736.19C-1788.93 2324.07 -1389.01 2039.49 -973.816 2100.81L-971.378 2101.17C-805.665 2128.68 -633.363 2087.69 -493.324 1988.71L-448.529 1956.6C-312.733 1857.88 -219.171 1711.33 -189.974 1549.19C-189.413 1546.07 -189.14 1542.9 -188.866 1539.79C-188.591 1536.66 -188.314 1533.58 -187.754 1530.57C-107.624 1118.18 292.749 833.992 708.815 896.779C873.858 923.362 1046.83 883.3 1186.87 784.322L1236.49 748.753C1355.44 663.49 1440.75 541.157 1480.38 403.766C1548.16 168.717 1600.74 -20.3642 1812.81 -172.379Z" stroke="url(#paint29_linear_1_1696)" stroke-width="1.87254"/>
<path d="M1768.33 -233.789C1995.1 -396.343 2270.89 -436.848 2513.47 -367.372C2521.87 -364.965 2530.56 -363.54 2539.34 -363.593C2683.99 -364.452 2827.52 -410.644 2948.99 -496.495L2998.26 -531.815C3147.64 -640.409 3250.56 -801.613 3282.68 -979.97C3283.29 -983.396 3283.59 -986.883 3283.9 -990.312C3284.2 -993.758 3284.5 -997.147 3285.12 -1000.46C3373.26 -1454.08 3813.67 -1766.68 4271.33 -1697.62L4271.33 -1697.62C4452.88 -1668.38 4643.15 -1712.45 4797.2 -1821.32L4851.79 -1860.45C4982.63 -1954.24 5076.48 -2088.81 5120.06 -2239.94C5121.58 -2245.19 5122.54 -2250.58 5123.1 -2256C5147.61 -2492.5 5272.58 -2720.9 5485.74 -2873.69C5871.26 -3150.04 6398.41 -3073.65 6663.24 -2703.87L6665.92 -2700.13C6771.11 -2552.51 6826.37 -2368.59 6811.42 -2173.02L6811.05 -2168.4C6789.59 -1908.16 6649.97 -1680.49 6448.54 -1536.11L6434.74 -1526.21C6225.74 -1380.98 5976.79 -1337.77 5750.54 -1387.53C5746.05 -1388.52 5741.49 -1389.23 5736.89 -1389.54C5576.59 -1400.19 5415.11 -1354.12 5282.15 -1257.29L5228.63 -1218.92C5076.79 -1106.98 4972.81 -941.688 4941.05 -759.543L4938.95 -748.255C4851.71 -294.495 4412.12 16.7611 3955.4 -50.6872L3952.72 -51.0874C3771.17 -80.3287 3580.91 -36.2615 3426.86 72.6154L3371.2 112.513C3222.8 222.504 3122.45 383.139 3094.21 561.224C3059.24 762.218 2951.07 947.786 2790.14 1080.64L2790.14 1080.64C2522.48 1302.86 2291.28 1251.16 1979.09 1248.88C1832.26 1247.81 1686.53 1293.92 1564.74 1382.62L1511.23 1420.98L1511.23 1420.98L1511.22 1420.98C1359.38 1532.92 1255.4 1698.22 1223.64 1880.36L1221.53 1891.65C1134.12 2346.3 692.983 2657.89 235.309 2588.82C53.7615 2559.58 -136.502 2603.64 -290.549 2712.52L-346.209 2752.42C-494.617 2862.41 -594.963 3023.04 -623.204 3201.13C-658.173 3402.12 -766.34 3587.69 -927.271 3720.54L-927.273 3720.54C-1289.84 4021.56 -1820.79 3983.55 -2111.08 3636.77C-2110.61 3636.18 -2110.6 3635.31 -2111.11 3634.7C-2265.73 3450.58 -2327 3205.76 -2279.53 2965.65L-2279.53 2965.64C-2193.59 2512.3 -1753.68 2199.27 -1296.96 2266.71L-1294.28 2267.11C-1112 2297.38 -922.465 2252.28 -768.422 2143.41L-719.148 2108.09C-569.772 1999.5 -466.854 1838.29 -434.737 1659.93C-434.12 1656.51 -433.819 1653.02 -433.518 1649.59C-433.215 1646.15 -432.911 1642.76 -432.296 1639.46C-344.325 1186.71 94.5398 874.44 551.249 941.885L553.93 942.286C735.478 971.527 925.743 927.459 1079.79 818.582L1134.37 779.456C1265.21 685.667 1359.06 551.099 1402.65 399.97C1477.21 141.416 1535.05 -66.5726 1768.33 -233.789Z" stroke="url(#paint30_linear_1_1696)" stroke-width="2.0598"/>
</g>
<defs>
<linearGradient id="paint0_linear_1_1696" x1="2131.27" y1="520.754" x2="2306.78" y2="390.847" gradientUnits="userSpaceOnUse">
<stop stop-color="#31D289" stop-opacity="0.3"/>
<stop offset="0.225" stop-color="#FFEEA0"/>
<stop offset="0.47" stop-color="white"/>
<stop offset="0.7" stop-color="#FFEEA0"/>
<stop offset="0.825" stop-color="#FFEEA0"/>
<stop offset="0.935" stop-color="#18E589" stop-opacity="0.3"/>
</linearGradient>
<linearGradient id="paint1_linear_1_1696" x1="2118.63" y1="528.658" x2="2311.69" y2="385.76" gradientUnits="userSpaceOnUse">
<stop stop-color="#31D289" stop-opacity="0.3"/>
<stop offset="0.225" stop-color="#FFEEA0"/>
<stop offset="0.47" stop-color="white"/>
<stop offset="0.7" stop-color="#FFEEA0"/>
<stop offset="0.825" stop-color="#FFEEA0"/>
<stop offset="0.935" stop-color="#18E589" stop-opacity="0.3"/>
</linearGradient>
<linearGradient id="paint2_linear_1_1696" x1="2104.72" y1="537.351" x2="2317.1" y2="380.163" gradientUnits="userSpaceOnUse">
<stop stop-color="#31D289" stop-opacity="0.3"/>
<stop offset="0.225" stop-color="#FFEEA0"/>
<stop offset="0.47" stop-color="white"/>
<stop offset="0.7" stop-color="#FFEEA0"/>
<stop offset="0.825" stop-color="#FFEEA0"/>
<stop offset="0.935" stop-color="#18E589" stop-opacity="0.3"/>
</linearGradient>
<linearGradient id="paint3_linear_1_1696" x1="2089.43" y1="546.915" x2="2323.04" y2="374.008" gradientUnits="userSpaceOnUse">
<stop stop-color="#31D289" stop-opacity="0.3"/>
<stop offset="0.225" stop-color="#FFEEA0"/>
<stop offset="0.47" stop-color="white"/>
<stop offset="0.7" stop-color="#FFEEA0"/>
<stop offset="0.825" stop-color="#FFEEA0"/>
<stop offset="0.935" stop-color="#18E589" stop-opacity="0.3"/>
</linearGradient>
<linearGradient id="paint4_linear_1_1696" x1="2072.61" y1="557.434" x2="2329.58" y2="367.237" gradientUnits="userSpaceOnUse">
<stop stop-color="#31D289" stop-opacity="0.3"/>
<stop offset="0.225" stop-color="#FFEEA0"/>
<stop offset="0.47" stop-color="white"/>
<stop offset="0.7" stop-color="#FFEEA0"/>
<stop offset="0.825" stop-color="#FFEEA0"/>
<stop offset="0.935" stop-color="#18E589" stop-opacity="0.3"/>
</linearGradient>
<linearGradient id="paint5_linear_1_1696" x1="2054.1" y1="569.006" x2="2336.77" y2="359.789" gradientUnits="userSpaceOnUse">
<stop stop-color="#31D289" stop-opacity="0.3"/>
<stop offset="0.225" stop-color="#FFEEA0"/>
<stop offset="0.47" stop-color="white"/>
<stop offset="0.7" stop-color="#FFEEA0"/>
<stop offset="0.825" stop-color="#FFEEA0"/>
<stop offset="0.935" stop-color="#18E589" stop-opacity="0.3"/>
</linearGradient>
<linearGradient id="paint6_linear_1_1696" x1="2033.74" y1="581.735" x2="2344.68" y2="351.596" gradientUnits="userSpaceOnUse">
<stop stop-color="#31D289" stop-opacity="0.3"/>
<stop offset="0.225" stop-color="#FFEEA0"/>
<stop offset="0.47" stop-color="white"/>
<stop offset="0.7" stop-color="#FFEEA0"/>
<stop offset="0.825" stop-color="#FFEEA0"/>
<stop offset="0.935" stop-color="#18E589" stop-opacity="0.3"/>
</linearGradient>
<linearGradient id="paint7_linear_1_1696" x1="2011.35" y1="595.736" x2="2353.38" y2="342.584" gradientUnits="userSpaceOnUse">
<stop stop-color="#31D289" stop-opacity="0.3"/>
<stop offset="0.225" stop-color="#FFEEA0"/>
<stop offset="0.47" stop-color="white"/>
<stop offset="0.7" stop-color="#FFEEA0"/>
<stop offset="0.825" stop-color="#FFEEA0"/>
<stop offset="0.935" stop-color="#18E589" stop-opacity="0.3"/>
</linearGradient>
<linearGradient id="paint8_linear_1_1696" x1="1986.72" y1="611.137" x2="2362.96" y2="332.67" gradientUnits="userSpaceOnUse">
<stop stop-color="#31D289" stop-opacity="0.3"/>
<stop offset="0.225" stop-color="#FFEEA0"/>
<stop offset="0.47" stop-color="white"/>
<stop offset="0.7" stop-color="#FFEEA0"/>
<stop offset="0.825" stop-color="#FFEEA0"/>
<stop offset="0.935" stop-color="#18E589" stop-opacity="0.3"/>
</linearGradient>
<linearGradient id="paint9_linear_1_1696" x1="1959.63" y1="628.079" x2="2373.48" y2="321.765" gradientUnits="userSpaceOnUse">
<stop stop-color="#31D289" stop-opacity="0.3"/>
<stop offset="0.225" stop-color="#FFEEA0"/>
<stop offset="0.47" stop-color="white"/>
<stop offset="0.7" stop-color="#FFEEA0"/>
<stop offset="0.825" stop-color="#FFEEA0"/>
<stop offset="0.935" stop-color="#18E589" stop-opacity="0.3"/>
</linearGradient>
<linearGradient id="paint10_linear_1_1696" x1="1929.82" y1="646.716" x2="2385.07" y2="309.77" gradientUnits="userSpaceOnUse">
<stop stop-color="#31D289" stop-opacity="0.3"/>
<stop offset="0.225" stop-color="#FFEEA0"/>
<stop offset="0.47" stop-color="white"/>
<stop offset="0.7" stop-color="#FFEEA0"/>
<stop offset="0.825" stop-color="#FFEEA0"/>
<stop offset="0.935" stop-color="#18E589" stop-opacity="0.3"/>
</linearGradient>
<linearGradient id="paint11_linear_1_1696" x1="1897.04" y1="667.216" x2="2397.81" y2="296.576" gradientUnits="userSpaceOnUse">
<stop stop-color="#31D289" stop-opacity="0.3"/>
<stop offset="0.225" stop-color="#FFEEA0"/>
<stop offset="0.47" stop-color="white"/>
<stop offset="0.7" stop-color="#FFEEA0"/>
<stop offset="0.825" stop-color="#FFEEA0"/>
<stop offset="0.935" stop-color="#18E589" stop-opacity="0.3"/>
</linearGradient>
<linearGradient id="paint12_linear_1_1696" x1="1860.98" y1="689.766" x2="2411.82" y2="282.062" gradientUnits="userSpaceOnUse">
<stop stop-color="#31D289" stop-opacity="0.3"/>
<stop offset="0.225" stop-color="#FFEEA0"/>
<stop offset="0.47" stop-color="white"/>
<stop offset="0.7" stop-color="#FFEEA0"/>
<stop offset="0.825" stop-color="#FFEEA0"/>
<stop offset="0.935" stop-color="#18E589" stop-opacity="0.3"/>
</linearGradient>
<linearGradient id="paint13_linear_1_1696" x1="1821.31" y1="714.57" x2="2427.24" y2="266.095" gradientUnits="userSpaceOnUse">
<stop stop-color="#31D289" stop-opacity="0.3"/>
<stop offset="0.225" stop-color="#FFEEA0"/>
<stop offset="0.47" stop-color="white"/>
<stop offset="0.7" stop-color="#FFEEA0"/>
<stop offset="0.825" stop-color="#FFEEA0"/>
<stop offset="0.935" stop-color="#18E589" stop-opacity="0.3"/>
</linearGradient>
<linearGradient id="paint14_linear_1_1696" x1="1777.67" y1="741.856" x2="2444.19" y2="248.534" gradientUnits="userSpaceOnUse">
<stop stop-color="#31D289" stop-opacity="0.3"/>
<stop offset="0.225" stop-color="#FFEEA0"/>
<stop offset="0.47" stop-color="white"/>
<stop offset="0.7" stop-color="#FFEEA0"/>
<stop offset="0.825" stop-color="#FFEEA0"/>
<stop offset="0.935" stop-color="#18E589" stop-opacity="0.3"/>
</linearGradient>
<linearGradient id="paint15_linear_1_1696" x1="1729.67" y1="771.871" x2="2462.85" y2="229.216" gradientUnits="userSpaceOnUse">
<stop stop-color="#31D289" stop-opacity="0.3"/>
<stop offset="0.225" stop-color="#FFEEA0"/>
<stop offset="0.47" stop-color="white"/>
<stop offset="0.7" stop-color="#FFEEA0"/>
<stop offset="0.825" stop-color="#FFEEA0"/>
<stop offset="0.935" stop-color="#18E589" stop-opacity="0.3"/>
</linearGradient>
<linearGradient id="paint16_linear_1_1696" x1="1676.87" y1="804.885" x2="2483.36" y2="207.965" gradientUnits="userSpaceOnUse">
<stop stop-color="#31D289" stop-opacity="0.3"/>
<stop offset="0.225" stop-color="#FFEEA0"/>
<stop offset="0.47" stop-color="white"/>
<stop offset="0.7" stop-color="#FFEEA0"/>
<stop offset="0.825" stop-color="#FFEEA0"/>
<stop offset="0.935" stop-color="#18E589" stop-opacity="0.3"/>
</linearGradient>
<linearGradient id="paint17_linear_1_1696" x1="1618.8" y1="841.203" x2="2505.93" y2="184.591" gradientUnits="userSpaceOnUse">
<stop stop-color="#31D289" stop-opacity="0.3"/>
<stop offset="0.225" stop-color="#FFEEA0"/>
<stop offset="0.47" stop-color="white"/>
<stop offset="0.7" stop-color="#FFEEA0"/>
<stop offset="0.825" stop-color="#FFEEA0"/>
<stop offset="0.935" stop-color="#18E589" stop-opacity="0.3"/>
</linearGradient>
<linearGradient id="paint18_linear_1_1696" x1="1554.91" y1="881.151" x2="2530.76" y2="158.878" gradientUnits="userSpaceOnUse">
<stop stop-color="#31D289" stop-opacity="0.3"/>
<stop offset="0.225" stop-color="#FFEEA0"/>
<stop offset="0.47" stop-color="white"/>
<stop offset="0.7" stop-color="#FFEEA0"/>
<stop offset="0.825" stop-color="#FFEEA0"/>
<stop offset="0.935" stop-color="#18E589" stop-opacity="0.3"/>
</linearGradient>
<linearGradient id="paint19_linear_1_1696" x1="1484.63" y1="925.094" x2="2558.07" y2="130.594" gradientUnits="userSpaceOnUse">
<stop stop-color="#31D289" stop-opacity="0.3"/>
<stop offset="0.225" stop-color="#FFEEA0"/>
<stop offset="0.47" stop-color="white"/>
<stop offset="0.7" stop-color="#FFEEA0"/>
<stop offset="0.825" stop-color="#FFEEA0"/>
<stop offset="0.935" stop-color="#18E589" stop-opacity="0.3"/>
</linearGradient>
<linearGradient id="paint20_linear_1_1696" x1="1407.33" y1="973.433" x2="2588.11" y2="99.482" gradientUnits="userSpaceOnUse">
<stop stop-color="#31D289" stop-opacity="0.3"/>
<stop offset="0.225" stop-color="#FFEEA0"/>
<stop offset="0.47" stop-color="white"/>
<stop offset="0.7" stop-color="#FFEEA0"/>
<stop offset="0.825" stop-color="#FFEEA0"/>
<stop offset="0.935" stop-color="#18E589" stop-opacity="0.3"/>
</linearGradient>
<linearGradient id="paint21_linear_1_1696" x1="1322.3" y1="1026.6" x2="2621.16" y2="65.258" gradientUnits="userSpaceOnUse">
<stop stop-color="#31D289" stop-opacity="0.3"/>
<stop offset="0.225" stop-color="#FFEEA0"/>
<stop offset="0.47" stop-color="white"/>
<stop offset="0.7" stop-color="#FFEEA0"/>
<stop offset="0.825" stop-color="#FFEEA0"/>
<stop offset="0.935" stop-color="#18E589" stop-opacity="0.3"/>
</linearGradient>
<linearGradient id="paint22_linear_1_1696" x1="1228.76" y1="1085.09" x2="2657.51" y2="27.6129" gradientUnits="userSpaceOnUse">
<stop stop-color="#31D289" stop-opacity="0.3"/>
<stop offset="0.225" stop-color="#FFEEA0"/>
<stop offset="0.47" stop-color="white"/>
<stop offset="0.7" stop-color="#FFEEA0"/>
<stop offset="0.825" stop-color="#FFEEA0"/>
<stop offset="0.935" stop-color="#18E589" stop-opacity="0.3"/>
</linearGradient>
<linearGradient id="paint23_linear_1_1696" x1="1125.87" y1="1149.43" x2="2697.49" y2="-13.7978" gradientUnits="userSpaceOnUse">
<stop stop-color="#31D289" stop-opacity="0.3"/>
<stop offset="0.225" stop-color="#FFEEA0"/>
<stop offset="0.47" stop-color="white"/>
<stop offset="0.7" stop-color="#FFEEA0"/>
<stop offset="0.825" stop-color="#FFEEA0"/>
<stop offset="0.935" stop-color="#18E589" stop-opacity="0.3"/>
</linearGradient>
<linearGradient id="paint24_linear_1_1696" x1="1012.69" y1="1220.2" x2="2741.47" y2="-59.3487" gradientUnits="userSpaceOnUse">
<stop stop-color="#31D289" stop-opacity="0.3"/>
<stop offset="0.225" stop-color="#FFEEA0"/>
<stop offset="0.47" stop-color="white"/>
<stop offset="0.7" stop-color="#FFEEA0"/>
<stop offset="0.825" stop-color="#FFEEA0"/>
<stop offset="0.935" stop-color="#18E589" stop-opacity="0.3"/>
</linearGradient>
<linearGradient id="paint25_linear_1_1696" x1="888.193" y1="1298.05" x2="2789.85" y2="-109.456" gradientUnits="userSpaceOnUse">
<stop stop-color="#31D289" stop-opacity="0.3"/>
<stop offset="0.225" stop-color="#FFEEA0"/>
<stop offset="0.47" stop-color="white"/>
<stop offset="0.7" stop-color="#FFEEA0"/>
<stop offset="0.825" stop-color="#FFEEA0"/>
<stop offset="0.935" stop-color="#18E589" stop-opacity="0.3"/>
</linearGradient>
<linearGradient id="paint26_linear_1_1696" x1="751.245" y1="1383.68" x2="2843.07" y2="-164.573" gradientUnits="userSpaceOnUse">
<stop stop-color="#31D289" stop-opacity="0.3"/>
<stop offset="0.225" stop-color="#FFEEA0"/>
<stop offset="0.47" stop-color="white"/>
<stop offset="0.7" stop-color="#FFEEA0"/>
<stop offset="0.825" stop-color="#FFEEA0"/>
<stop offset="0.935" stop-color="#18E589" stop-opacity="0.3"/>
</linearGradient>
<linearGradient id="paint27_linear_1_1696" x1="600.605" y1="1477.88" x2="2901.61" y2="-225.201" gradientUnits="userSpaceOnUse">
<stop stop-color="#31D289" stop-opacity="0.3"/>
<stop offset="0.225" stop-color="#FFEEA0"/>
<stop offset="0.47" stop-color="white"/>
<stop offset="0.7" stop-color="#FFEEA0"/>
<stop offset="0.825" stop-color="#FFEEA0"/>
<stop offset="0.935" stop-color="#18E589" stop-opacity="0.3"/>
</linearGradient>
<linearGradient id="paint28_linear_1_1696" x1="434.898" y1="1581.5" x2="2966.01" y2="-291.894" gradientUnits="userSpaceOnUse">
<stop stop-color="#31D289" stop-opacity="0.3"/>
<stop offset="0.225" stop-color="#FFEEA0"/>
<stop offset="0.47" stop-color="white"/>
<stop offset="0.7" stop-color="#FFEEA0"/>
<stop offset="0.825" stop-color="#FFEEA0"/>
<stop offset="0.935" stop-color="#18E589" stop-opacity="0.3"/>
</linearGradient>
<linearGradient id="paint29_linear_1_1696" x1="252.62" y1="1695.48" x2="3036.84" y2="-365.254" gradientUnits="userSpaceOnUse">
<stop stop-color="#31D289" stop-opacity="0.3"/>
<stop offset="0.225" stop-color="#FFEEA0"/>
<stop offset="0.47" stop-color="white"/>
<stop offset="0.7" stop-color="#FFEEA0"/>
<stop offset="0.825" stop-color="#FFEEA0"/>
<stop offset="0.935" stop-color="#18E589" stop-opacity="0.3"/>
</linearGradient>
<linearGradient id="paint30_linear_1_1696" x1="52.1166" y1="1820.85" x2="3114.76" y2="-445.952" gradientUnits="userSpaceOnUse">
<stop stop-color="#31D289" stop-opacity="0.3"/>
<stop offset="0.225" stop-color="#FFEEA0"/>
<stop offset="0.47" stop-color="white"/>
<stop offset="0.7" stop-color="#FFEEA0"/>
<stop offset="0.825" stop-color="#FFEEA0"/>
<stop offset="0.935" stop-color="#18E589" stop-opacity="0.3"/>
</linearGradient>
<clipPath id="clip0_1_1696">
<rect width="2227" height="928" fill="white"/>
</clipPath>
</defs>
</svg>
